<?xml version="1.0" standalone="no"?>
<!DOCTYPE svg PUBLIC "-//W3C//DTD SVG 20010904//EN"
 "http://www.w3.org/TR/2001/REC-SVG-20010904/DTD/svg10.dtd">
<svg version="1.0" xmlns="http://www.w3.org/2000/svg"
 width="407.000000pt" height="550.000000pt" viewBox="0 0 407.000000 550.000000"
 preserveAspectRatio="xMidYMid meet">

<g transform="translate(0.000000,550.000000) scale(0.100000,-0.100000)"
fill="#0097B2" stroke="none">
<path d="M1985 5486 c-41 -18 -92 -77 -104 -123 -8 -26 -11 -795 -11 -2441 l0
-2402 -773 618 c-425 341 -784 626 -797 635 -66 42 -165 29 -225 -31 -58 -58
-70 -152 -28 -223 9 -16 436 -364 949 -774 l932 -745 130 0 130 0 914 731
c502 402 925 744 941 760 26 28 27 34 27 125 l0 97 -35 33 c-58 54 -131 67
-200 35 -22 -10 -389 -298 -815 -639 l-775 -620 -5 2426 c-5 2229 -6 2429 -21
2457 -44 80 -151 117 -234 81z"/>
</g>
</svg>
