<?xml version="1.0" standalone="no"?>
<!DOCTYPE svg PUBLIC "-//W3C//DTD SVG 20010904//EN"
 "http://www.w3.org/TR/2001/REC-SVG-20010904/DTD/svg10.dtd">
<svg version="1.0" xmlns="http://www.w3.org/2000/svg"
 width="550.000000pt" height="421.000000pt" viewBox="0 0 550.000000 421.000000"
 preserveAspectRatio="xMidYMid meet">

<g transform="translate(0.000000,421.000000) scale(0.100000,-0.100000)"
fill="#00F16B" stroke="none">
<path d="M3983 4150 l-1412 -58 -103 -50 c-1795 -869 -2445 -1185 -2453 -1193
-27 -27 39 -40 785 -148 421 -62 778 -114 794 -117 26 -6 7 -18 -170 -108
-357 -182 -523 -291 -554 -366 -7 -16 -22 -31 -35 -34 -36 -9 -142 -112 -162
-157 -14 -33 -28 -45 -80 -70 -34 -16 -84 -51 -111 -77 -103 -101 -144 -201
-144 -358 0 -125 17 -217 82 -449 86 -304 92 -389 55 -705 -8 -69 -14 -156
-13 -195 l1 -70 7 90 c4 50 15 172 25 272 23 214 16 314 -35 503 -16 63 -46
176 -66 250 -65 242 -58 430 19 559 59 97 186 193 227 171 11 -6 20 -13 20
-16 0 -3 -4 -2 -10 1 -13 8 -80 -43 -77 -58 1 -7 -3 -11 -10 -10 -20 4 -89
-84 -113 -144 -18 -45 -24 -84 -27 -173 -6 -143 14 -228 111 -474 90 -228 116
-321 123 -436 6 -106 -13 -209 -48 -269 -11 -18 -18 -36 -15 -38 8 -9 53 90
66 146 17 73 7 245 -20 339 -11 41 -50 147 -85 237 -111 282 -131 364 -123
508 6 98 33 188 69 229 18 20 20 21 13 3 -46 -125 -46 -128 -41 -245 5 -135
23 -209 112 -480 80 -243 103 -331 116 -446 12 -109 0 -205 -32 -247 -11 -16
-18 -31 -15 -34 10 -10 46 62 57 116 24 118 -9 296 -110 595 -97 286 -115 368
-116 521 0 117 2 135 24 178 29 58 97 135 142 161 34 20 34 20 -9 -28 -24 -26
-58 -77 -75 -114 -30 -63 -32 -74 -31 -177 0 -104 4 -121 58 -305 61 -210 119
-476 136 -632 17 -157 -5 -258 -78 -358 -19 -27 -12 -23 31 19 30 29 67 75 81
102 63 114 82 292 50 460 -19 104 -26 129 -130 471 -112 366 -113 396 -7 510
25 26 50 48 56 48 5 0 -7 -18 -28 -41 -57 -64 -69 -100 -69 -209 1 -87 5 -106
48 -225 63 -175 132 -434 152 -569 26 -174 15 -260 -59 -471 -35 -100 -57
-215 -41 -215 5 0 10 24 12 53 2 29 25 117 53 201 78 228 78 338 3 641 -19 77
-62 221 -96 320 -55 162 -61 188 -62 266 -1 76 2 92 29 144 29 57 106 128 121
112 4 -4 -14 -29 -39 -56 -53 -57 -77 -123 -77 -216 0 -78 19 -151 79 -300 27
-66 58 -151 69 -190 23 -76 66 -297 76 -385 10 -81 -15 -197 -73 -347 -49
-126 -60 -183 -43 -210 5 -7 8 10 8 40 -1 40 10 79 46 168 84 207 90 282 47
519 -30 163 -54 247 -118 407 -68 170 -86 247 -79 338 7 76 46 155 99 194 l34
26 -28 -34 c-60 -72 -72 -108 -72 -211 0 -114 9 -145 112 -363 94 -202 108
-238 127 -330 29 -141 16 -402 -26 -514 -12 -32 -37 -72 -60 -95 -22 -22 -38
-42 -35 -44 10 -11 93 97 109 142 28 78 41 204 36 362 -6 179 -16 213 -138
477 -49 105 -96 218 -104 251 -33 127 -14 231 55 306 l40 43 -25 -51 c-35 -73
-49 -168 -36 -249 16 -99 33 -144 130 -340 105 -212 129 -279 139 -392 16
-187 -23 -355 -116 -502 -39 -60 -39 -82 -1 -23 133 200 170 469 94 688 -13
38 -65 152 -115 254 -102 208 -121 269 -121 387 0 99 22 166 74 223 20 22 42
61 50 91 18 61 21 180 5 196 -41 41 149 173 533 368 180 92 188 95 192 73 3
-13 24 -158 47 -323 33 -235 41 -327 40 -424 -3 -205 22 -234 258 -301 735
-207 1393 -185 1899 62 269 131 513 338 669 569 90 133 92 158 29 302 -26 59
-93 241 -150 404 -58 164 -111 317 -119 339 l-15 42 599 492 c490 402 599 496
599 516 0 22 -3 24 -52 23 -29 -1 -688 -27 -1465 -59z m745 -518 c-348 -284
-816 -667 -1039 -849 l-407 -332 -53 15 c-170 47 -265 60 -634 89 -104 8 -230
21 -280 29 -49 8 -172 25 -273 37 -100 13 -182 25 -181 28 0 3 38 32 84 65
119 82 198 157 343 325 141 164 239 268 294 312 35 29 39 29 60 15 47 -33 203
-16 315 34 101 46 124 115 46 141 -76 25 -260 -12 -335 -67 -18 -13 -49 -34
-69 -48 -67 -46 -161 -140 -320 -321 -208 -239 -278 -303 -435 -401 l-75 -47
-762 103 c-419 56 -778 105 -797 109 -35 8 -34 8 80 63 149 72 659 319 915
443 110 53 315 152 455 220 140 68 380 184 533 258 l277 136 708 -5 c389 -3
799 -1 912 3 l205 9 -305 8 c-168 4 -569 6 -892 4 -583 -3 -587 -3 -550 16 32
17 79 21 372 32 184 8 614 25 955 39 341 13 748 29 905 35 157 6 299 12 315
14 17 1 83 4 148 4 l119 2 -634 -518z m452 335 c0 -2 -10 -12 -22 -23 l-23
-19 19 23 c18 21 26 27 26 19z m-60 -51 c0 -2 -8 -10 -17 -17 -16 -13 -17 -12
-4 4 13 16 21 21 21 13z m-50 -39 c0 -2 -10 -12 -22 -23 l-23 -19 19 23 c18
21 26 27 26 19z m-60 -51 c0 -2 -8 -10 -17 -17 -16 -13 -17 -12 -4 4 13 16 21
21 21 13z m-50 -39 c0 -2 -10 -12 -22 -23 l-23 -19 19 23 c18 21 26 27 26 19z
m-50 -40 c0 -2 -12 -14 -27 -28 l-28 -24 24 28 c23 25 31 32 31 24z m-60 -50
c0 -2 -10 -12 -22 -23 l-23 -19 19 23 c18 21 26 27 26 19z m-50 -40 c0 -2 -12
-14 -27 -28 l-28 -24 24 28 c23 25 31 32 31 24z m-60 -51 c0 -2 -24 -23 -52
-46 l-53 -42 50 46 c50 46 55 49 55 42z m-110 -90 c0 -2 -24 -23 -52 -46 l-53
-42 50 46 c50 46 55 49 55 42z m-1636 -31 c-1 -16 -75 -53 -138 -69 l-58 -15
-29 29 c-16 16 -25 31 -20 34 44 28 247 45 245 21z m1526 -59 c0 -2 -24 -23
-52 -46 l-53 -42 50 46 c50 46 55 49 55 42z m-1807 -23 c-7 -2 -19 -2 -25 0
-7 3 -2 5 12 5 14 0 19 -2 13 -5z m1697 -67 c0 -3 -226 -190 -502 -417 -277
-227 -527 -433 -557 -458 -30 -25 -52 -41 -50 -35 3 9 1096 911 1107 913 1 1
2 -1 2 -3z m-110 -298 c19 -55 36 -104 38 -108 5 -13 -86 -115 -152 -170 -37
-30 -105 -79 -153 -107 -98 -60 -101 -68 -10 -22 132 67 232 146 289 228 22
31 33 40 39 30 21 -34 -50 -104 -275 -273 -217 -162 -290 -212 -396 -273 -105
-60 -79 -53 51 13 266 136 584 370 619 455 7 16 15 28 17 25 2 -2 31 -79 64
-172 l59 -167 -42 -56 c-66 -87 -265 -281 -349 -338 -42 -28 -109 -70 -150
-93 -90 -50 -54 -42 54 11 42 22 77 37 77 35 0 -8 -156 -94 -229 -126 -40 -17
-126 -49 -190 -70 -131 -44 -136 -49 -18 -20 201 51 363 115 489 194 72 46 73
46 33 10 -165 -151 -421 -293 -648 -358 -211 -61 -291 -71 -572 -70 -237 0
-273 3 -409 27 -82 15 -152 29 -154 32 -3 3 51 6 119 6 l124 2 -115 8 c-117 8
-279 36 -360 64 l-45 15 40 -5 c22 -2 92 -6 155 -9 l115 -5 -110 13 c-60 8
-150 23 -200 34 -91 21 -312 86 -321 95 -3 2 -16 83 -29 178 -13 96 -27 190
-30 210 l-5 37 74 -24 c98 -31 185 -44 271 -42 50 1 57 3 25 5 -65 5 -203 31
-292 54 -60 17 -77 25 -82 42 -12 45 -6 47 47 18 103 -58 140 -64 402 -67 236
-2 238 -2 85 7 -85 5 -201 15 -256 23 -105 15 -256 60 -278 82 -15 14 -30 134
-19 145 5 4 362 -45 795 -108 l786 -115 489 401 c268 220 490 401 493 401 3 0
21 -46 40 -102z m-4113 -194 c-3 -3 -12 -4 -19 -1 -8 3 -5 6 6 6 11 1 17 -2
13 -5z m76 -11 c-7 -2 -21 -2 -30 0 -10 3 -4 5 12 5 17 0 24 -2 18 -5z m70
-10 c-7 -2 -21 -2 -30 0 -10 3 -4 5 12 5 17 0 24 -2 18 -5z m75 -10 c-10 -2
-26 -2 -35 0 -10 3 -2 5 17 5 19 0 27 -2 18 -5z m682 -88 c349 -48 636 -88
638 -90 19 -19 -125 -3 -654 75 -341 49 -626 92 -634 94 -54 14 85 -3 650 -79z
m1440 -195 c816 -108 740 -96 740 -122 0 -17 -5 -19 -32 -15 -18 3 -350 52
-738 108 -388 56 -707 104 -710 106 -10 8 26 22 45 18 11 -3 324 -45 695 -95z
m2025 -190 l26 -51 -36 -53 c-69 -104 -289 -299 -457 -405 -38 -24 -68 -45
-68 -47 0 -5 88 44 179 99 94 57 167 112 245 186 66 62 68 63 31 18 -109 -136
-316 -289 -587 -432 -68 -36 -120 -65 -116 -65 9 0 294 127 320 143 13 8 50
28 83 46 l60 32 -35 -32 c-45 -40 -187 -135 -270 -181 -194 -107 -465 -189
-722 -217 -141 -16 -442 -13 -598 5 -216 25 -225 32 -50 35 85 1 137 4 115 6
-22 1 -105 8 -185 13 -353 27 -649 92 -680 151 -9 15 -4 14 33 -6 59 -32 188
-71 281 -84 74 -11 364 -16 355 -7 -2 3 -65 9 -139 15 -74 6 -184 20 -243 31
-113 22 -281 73 -304 92 -16 13 -14 174 2 171 6 -1 75 -25 155 -53 845 -299
1562 -247 2119 153 150 108 340 304 424 440 17 26 31 47 33 47 2 0 15 -23 29
-50z m16 -123 c-10 -9 -11 -8 -5 6 3 10 9 15 12 12 3 -3 0 -11 -7 -18z m-3738
-238 c-13 -33 -22 -63 -20 -66 3 -2 12 15 21 39 10 24 26 54 36 68 l20 25 0
-30 c0 -16 -9 -49 -20 -72 -23 -51 -18 -56 11 -10 l21 32 -7 -30 c-3 -16 -7
-43 -8 -60 -3 -30 -27 -78 -37 -72 -3 2 -40 20 -82 41 -44 21 -78 45 -78 53 0
8 5 11 12 7 8 -5 9 -2 5 10 -4 9 -3 15 2 12 4 -3 14 6 22 20 7 14 26 35 41 45
l27 20 -24 -43 c-28 -49 -33 -76 -7 -37 19 28 84 109 88 109 1 0 -9 -27 -23
-61z m-133 -133 c0 -2 -7 -7 -16 -10 -8 -3 -12 -2 -9 4 6 10 25 14 25 6z m-23
-80 c-54 -52 -69 -75 -82 -120 -22 -73 -15 -105 90 -448 103 -334 124 -421
131 -558 7 -122 -9 -217 -52 -304 -36 -73 -61 -96 -37 -35 48 128 -6 504 -130
909 -47 154 -50 172 -51 275 -1 104 1 113 31 176 31 62 146 189 160 176 3 -3
-24 -35 -60 -71z m88 44 c-3 -5 -11 -10 -16 -10 -6 0 -7 5 -4 10 3 6 11 10 16
10 6 0 7 -4 4 -10z m-215 -79 c-11 -21 -30 -37 -30 -25 0 8 30 44 37 44 2 0
-1 -9 -7 -19z"/>
<path d="M4015 4079 c-392 -10 -893 -30 -1000 -39 -140 -11 388 -12 865 0 484
11 999 29 1153 40 149 10 -643 9 -1018 -1z"/>
<path d="M3430 3940 c113 -5 322 -16 465 -25 143 -8 294 -17 335 -20 71 -4 72
-4 20 5 -143 23 -443 41 -720 45 -297 3 -299 3 -100 -5z"/>
<path d="M2093 3743 c9 -2 23 -2 30 0 6 3 -1 5 -18 5 -16 0 -22 -2 -12 -5z"/>
<path d="M2173 3733 c9 -2 23 -2 30 0 6 3 -1 5 -18 5 -16 0 -22 -2 -12 -5z"/>
<path d="M2243 3723 c9 -2 25 -2 35 0 9 3 1 5 -18 5 -19 0 -27 -2 -17 -5z"/>
<path d="M2038 3713 c6 -2 18 -2 25 0 6 3 1 5 -13 5 -14 0 -19 -2 -12 -5z"/>
<path d="M2323 3713 c9 -2 25 -2 35 0 9 3 1 5 -18 5 -19 0 -27 -2 -17 -5z"/>
<path d="M2113 3703 c9 -2 23 -2 30 0 6 3 -1 5 -18 5 -16 0 -22 -2 -12 -5z"/>
<path d="M2408 3703 c6 -2 18 -2 25 0 6 3 1 5 -13 5 -14 0 -19 -2 -12 -5z"/>
<path d="M2188 3693 c7 -3 16 -2 19 1 4 3 -2 6 -13 5 -11 0 -14 -3 -6 -6z"/>
<path d="M2248 3683 c6 -2 18 -2 25 0 6 3 1 5 -13 5 -14 0 -19 -2 -12 -5z"/>
<path d="M1383 3353 c9 -2 25 -2 35 0 9 3 1 5 -18 5 -19 0 -27 -2 -17 -5z"/>
<path d="M1445 3345 c25 -9 626 -75 668 -74 45 2 -30 12 -350 48 -246 28 -346
36 -318 26z"/>
<path d="M1173 3333 c9 -2 25 -2 35 0 9 3 1 5 -18 5 -19 0 -27 -2 -17 -5z"/>
<path d="M1285 3319 c91 -14 591 -69 612 -68 42 2 -19 10 -308 44 -277 32
-454 46 -304 24z"/>
<path d="M2168 3263 c12 -2 30 -2 40 0 9 3 -1 5 -23 4 -22 0 -30 -2 -17 -4z"/>
<path d="M698 2983 c6 -2 18 -2 25 0 6 3 1 5 -13 5 -14 0 -19 -2 -12 -5z"/>
<path d="M623 2933 c9 -2 23 -2 30 0 6 3 -1 5 -18 5 -16 0 -22 -2 -12 -5z"/>
<path d="M703 2923 c9 -2 23 -2 30 0 6 3 -1 5 -18 5 -16 0 -22 -2 -12 -5z"/>
<path d="M408 2913 c6 -2 18 -2 25 0 6 3 1 5 -13 5 -14 0 -19 -2 -12 -5z"/>
<path d="M773 2913 c9 -2 23 -2 30 0 6 3 -1 5 -18 5 -16 0 -22 -2 -12 -5z"/>
<path d="M610 2889 c80 -11 210 -31 289 -45 79 -14 145 -23 148 -21 12 13
-475 88 -552 86 -16 0 35 -9 115 -20z"/>
<path d="M838 2903 c6 -2 18 -2 25 0 6 3 1 5 -13 5 -14 0 -19 -2 -12 -5z"/>
<path d="M908 2893 c7 -3 16 -2 19 1 4 3 -2 6 -13 5 -11 0 -14 -3 -6 -6z"/>
<path d="M388 2883 c7 -3 16 -2 19 1 4 3 -2 6 -13 5 -11 0 -14 -3 -6 -6z"/>
<path d="M421 2876 c16 -16 804 -130 857 -124 15 2 -34 11 -108 21 -74 10
-269 38 -433 63 -299 44 -324 47 -316 40z"/>
<path d="M2253 2823 c9 -2 25 -2 35 0 9 3 1 5 -18 5 -19 0 -27 -2 -17 -5z"/>
<path d="M1068 2813 c7 -3 16 -2 19 1 4 3 -2 6 -13 5 -11 0 -14 -3 -6 -6z"/>
<path d="M2508 2775 c211 -44 301 -60 292 -52 -7 7 -456 97 -477 96 -10 0 74
-20 185 -44z"/>
<path d="M2388 2753 c7 -3 16 -2 19 1 4 3 -2 6 -13 5 -11 0 -14 -3 -6 -6z"/>
<path d="M1323 2743 c9 -2 25 -2 35 0 9 3 1 5 -18 5 -19 0 -27 -2 -17 -5z"/>
<path d="M2448 2743 c7 -3 16 -2 19 1 4 3 -2 6 -13 5 -11 0 -14 -3 -6 -6z"/>
<path d="M2498 2733 c6 -2 18 -2 25 0 6 3 1 5 -13 5 -14 0 -19 -2 -12 -5z"/>
<path d="M2558 2723 c7 -3 16 -2 19 1 4 3 -2 6 -13 5 -11 0 -14 -3 -6 -6z"/>
<path d="M2598 2713 c6 -2 18 -2 25 0 6 3 1 5 -13 5 -14 0 -19 -2 -12 -5z"/>
<path d="M2818 2713 c6 -2 18 -2 25 0 6 3 1 5 -13 5 -14 0 -19 -2 -12 -5z"/>
<path d="M2648 2703 c7 -3 16 -2 19 1 4 3 -2 6 -13 5 -11 0 -14 -3 -6 -6z"/>
<path d="M2868 2703 c6 -2 18 -2 25 0 6 3 1 5 -13 5 -14 0 -19 -2 -12 -5z"/>
<path d="M3840 1960 c-8 -5 -10 -10 -5 -10 6 0 17 5 25 10 8 5 11 10 5 10 -5
0 -17 -5 -25 -10z"/>
<path d="M1805 1911 c54 -38 122 -52 275 -56 l145 -4 -165 19 c-91 11 -183 26
-205 34 -22 8 -49 17 -60 21 -11 4 -7 -2 10 -14z"/>
<path d="M2258 1843 c12 -2 30 -2 40 0 9 3 -1 5 -23 4 -22 0 -30 -2 -17 -4z"/>
<path d="M569 1806 c-128 -94 -189 -227 -189 -412 0 -119 18 -213 86 -441 31
-102 62 -219 70 -260 20 -106 18 -253 -6 -375 -21 -109 -23 -124 -15 -116 17
16 47 224 47 318 0 123 -15 200 -83 428 -88 297 -106 436 -75 583 24 112 76
192 169 262 62 47 63 47 51 47 -5 0 -30 -16 -55 -34z"/>
</g>
</svg>
