<svg xmlns="http://www.w3.org/2000/svg" viewBox="0 0 436.32 426.32"><defs><style>.cls-1{fill:#e8e8e8;}.cls-2{fill:#e887b3;}.cls-3{fill:#c47f9e;}.cls-4{fill:#ff99c8;}.cls-5{fill:#d0ced4;}.cls-6{fill:#57a7e3;}.cls-7{fill:#71c2ff;}.cls-8{fill:#5fa4d6;}.cls-9{fill:#519cd4;}.cls-10{fill:#967f6b;}.cls-11{fill:#a5a1e3;}.cls-12{fill:#9692cf;}.cls-13,.cls-17,.cls-27{fill:#fff;}.cls-14{fill:#cbc8ff;}.cls-15{fill:#b7b3f2;}.cls-16{fill:#8480d4;}.cls-17{stroke:#000;stroke-miterlimit:10;stroke-width:0.58px;}.cls-18{fill:#dbaa13;}.cls-19{fill:#c99c11;}.cls-20{fill:#ffc615;}.cls-21{fill:#e8b413;}.cls-22{fill:#b5c1c9;}.cls-23{fill:#a9b3ba;}.cls-24{fill:#80878c;}.cls-25{fill:#94d1ff;}.cls-26{fill:#c9c9c9;}.cls-27{opacity:0.1;}.cls-28{fill:#c2658f;}.cls-29{fill:#dbdbdb;}.cls-30{fill:#a17d0d;}.cls-31{fill:#544106;}.cls-32{fill:#427fad;}.cls-33{fill:#4c92c7;}.cls-34{fill:#b7b5ba;}.cls-35{fill:#858487;}.cls-36{fill:#3b739c;}</style></defs><title>Recurso 1</title><g id="Capa_2" data-name="Capa 2"><g id="OBJECTS"><path class="cls-1" d="M50.61,212.64,42.53,208c-4.14-2.39-3.61-6.61,1.17-9.37l62.71-35.67c4.78-2.76,12.09-3.07,16.23-.68l8.07,4.67c4.15,2.39,3.62,6.6-1.16,9.37L66.84,212C62.05,214.73,54.75,215,50.61,212.64Z"/><path class="cls-1" d="M12.39,207.27h0c-8.61-5.73-8.34-10.73-2.09-14.34l82-46.66c6.25-3.61,15.8-4,21.22-.88l10.56,6.1c5.42,3.13,4.73,8.64-1.52,12.25L43.8,208.17C31.73,214.26,20.17,213,12.39,207.27Z"/><path class="cls-2" d="M75,1.41l-67.51,39V191.22l4.47,2.63c4.23-2.45,70.7-50.59,70.7-56.23L86.86,7.5C84.71.53,79.19-1,75,1.41Z"/><path class="cls-3" d="M79.43,4,11.92,43V193.85l67.51-39c4.23-2.44,7.66-9,7.66-14.63V9.82C87.09,4.18,83.66,1.59,79.43,4Z"/><path class="cls-1" d="M80.52,7.54,13,46.51V197.35l67.51-39c4.23-2.44,7.65-9,7.65-14.63L105.23,21.08C82.46,13.83,83,10.32,80.52,7.54Z"/><path class="cls-2" d="M99.24,14.91l-67.51,39V204.72l4.47,2.63c4.23-2.44,70.69-50.59,70.69-56.23L111.14,21C109,14,103.47,12.47,99.24,14.91Z"/><path class="cls-4" d="M103.71,17.53l-67.51,39V207.35l67.51-39c4.23-2.44,7.66-9,7.66-14.63V23.32C111.37,17.68,107.94,15.09,103.71,17.53Z"/><path class="cls-2" d="M97.37,28.4l-50,28.89A8.45,8.45,0,0,0,43.8,64v127c0,2.6,1.58,3.79,3.53,2.67l50-28.89c3.53-2,6.4-7.52,6.4-12.24V33.24C103.77,28.53,100.9,26.36,97.37,28.4Z"/><path class="cls-3" d="M31.73,53.88S12.2,52.93,11.92,43L7.45,40.38a13.45,13.45,0,0,0,0,3.16V190.9S4.21,211.5,36.2,207.35V56.51Zm-2.81,3.18Z"/><path class="cls-2" d="M15.71,53.73C25,58.46,36.2,56.51,36.2,56.51l-4.7-2.64C29.3,53.72,12.19,52.29,11.92,43L7.45,40.38S6.47,49,15.71,53.73Z"/><path class="cls-1" d="M181.65,156.27l10.37-6c5.24-3,4.58-8.36-1.47-11.85l-39.44-22.77c-6.05-3.49-15.28-3.87-20.51-.85l-10.38,6c-5.23,3-4.57,8.35,1.48,11.84l39.44,22.77C167.18,158.92,176.41,159.3,181.65,156.27Z"/><path class="cls-5" d="M120,113.65h0c0-1.85,1-3.62,3.32-4.93l9.77-5.65c4.94-2.85,13.64-2.49,19.34.8l37.17,21.47c2.93,1.69,4.51,3.84,4.69,5.92h0v.17a5,5,0,0,1,0,.55v10.12a5,5,0,0,1,0,.55v.07h0a5.89,5.89,0,0,1-3.3,4.45l-9.78,5.65c-4.93,2.85-13.63,2.49-19.33-.8l-37.17-21.47c-3.09-1.78-4.68-4.07-4.71-6.25h0Z"/><path class="cls-6" d="M143,130.44,178.56,119l11,6.36c2.93,1.69,4.51,3.84,4.69,5.92h0v.17a5,5,0,0,1,0,.55v10.12a5,5,0,0,1,0,.55v.07h0a5.89,5.89,0,0,1-3.3,4.45l-9.78,5.65c-4.93,2.85-13.63,2.49-19.33-.8L143,141.12Z"/><path class="cls-1" d="M181.18,142.15l9.78-5.64c4.93-2.85,4.31-7.87-1.39-11.16L152.4,103.88c-5.7-3.29-14.4-3.65-19.34-.8l-9.77,5.65c-4.94,2.85-4.31,7.87,1.39,11.16l37.17,21.46C167.55,144.64,176.25,145,181.18,142.15Z"/><path class="cls-7" d="M144.85,129.19l23.66-13.66a4.53,4.53,0,0,1,4.06,0l17,9.82c5.7,3.29,6.32,8.31,1.39,11.16l-9.78,5.64c-4.93,2.85-13.63,2.49-19.33-.8L143,130.44C143.94,129.77,144.64,129.31,144.85,129.19Z"/><path class="cls-7" d="M108.56,33,45.45,67.79V198L48,199.53c2.42-1.4,64.94-41.46,64.94-44.69l2.43-118.37C114.15,32.48,111,31.58,108.56,33Z"/><path class="cls-8" d="M111.13,34.49,48,69.29V199.53l63.12-34.81c2.42-1.39,4.38-5.15,4.38-8.38V37.8C115.51,34.57,113.55,33.09,111.13,34.49Z"/><path class="cls-1" d="M111.75,36.5,48.63,71.3V201.54l63.12-34.81c2.42-1.39,4.38-5.15,4.38-8.38l9.78-114.09C112.86,40.1,113.15,38.09,111.75,36.5Z"/><path class="cls-7" d="M122.48,40.72,59.36,75.52V205.76l2.57,1.51c2.42-1.4,64.94-41.46,64.94-44.7L129.3,44.21C128.06,40.22,124.9,39.32,122.48,40.72Z"/><path class="cls-7" d="M125,42.22,61.93,77V207.27L125,172.46c2.42-1.4,4.39-5.15,4.39-8.38V45.54C129.43,42.31,127.46,40.83,125,42.22Z"/><path class="cls-8" d="M121.41,48.45l-53.11,29a4.82,4.82,0,0,0-2,3.86V197.93c0,1.49.9,2.17,2,1.53l53.11-29c2-1.17,3.67-4.31,3.67-7V51.23C125.08,48.53,123.43,47.28,121.41,48.45Z"/><path class="cls-8" d="M59.36,75.52S48.17,75,48,69.29l-2.56-1.5a7.34,7.34,0,0,0,0,1.81V197.84s-1.86,11.81,16.48,9.43V77Zm-1.61,1.83Z"/><path class="cls-7" d="M50.18,75.44C55.49,78.15,61.93,77,61.93,77l-2.7-1.51C58,75.43,48.16,74.61,48,69.29l-2.56-1.5A8,8,0,0,0,50.18,75.44Z"/><ellipse class="cls-1" cx="228.33" cy="123.68" rx="28.64" ry="16.54"/><path class="cls-9" d="M260.84,77.87a16,16,0,1,0,16,16A16,16,0,0,0,260.84,77.87Zm0,24.42a8.45,8.45,0,1,1,8.45-8.45A8.45,8.45,0,0,1,260.84,102.29Z"/><path class="cls-6" d="M201.89,71.06v52.4c0,3.91,2.58,7.82,7.74,10.8,10.33,6,27.08,6,37.4,0,5.17-3,7.75-6.89,7.75-10.8h0V71.06Z"/><ellipse class="cls-6" cx="228.33" cy="71.06" rx="26.45" ry="15.27"/><path class="cls-10" d="M245.33,71.12c-9.39-5.42-24.61-5.42-34,0a15.72,15.72,0,0,0-5.62,5.12,15.79,15.79,0,0,0,5.62,5.11c9.38,5.42,24.6,5.42,34,0A15.72,15.72,0,0,0,251,76.23,15.79,15.79,0,0,0,245.33,71.12Z"/><path class="cls-7" d="M247,60.27c-10.32-6-27.07-6-37.4,0s-10.32,15.63,0,21.59,27.08,6,37.4,0S257.36,66.23,247,60.27Zm-1.77,20.57c-9.35,5.4-24.51,5.4-33.86,0s-9.35-14.15,0-19.55,24.51-5.4,33.86,0S254.61,75.44,245.26,80.84Z"/><path class="cls-1" d="M282.51,245.38,200.82,198a2.14,2.14,0,0,1,0-3.7l115.62-66.76a2.15,2.15,0,0,1,2.14,0l83.81,48.67c5,2.88,4.36,7.91-1.4,11.23l-99,57.19C296.2,247.9,287.49,248.26,282.51,245.38Z"/><path class="cls-1" d="M417.44,183.36l11.71-6.76c6-3.48,5.26-9.6-1.69-13.61l-62.14-35.88c-6.95-4-17.55-4.44-23.56-1L330,132.9c-6,3.48-5.26,9.6,1.69,13.61l62.14,35.88C400.82,186.4,411.42,186.84,417.44,183.36Z"/><path class="cls-11" d="M426.73,172.87,350.89,2.4,354.25.06l73.18,42.25c4.58,2.64,8.29,9.74,8.29,15.85V163.3C435.72,169.41,431.1,172.91,426.73,172.87Z"/><path class="cls-12" d="M424.06,171.91l-73.17-42.24V2.4l73.17,42.25c4.58,2.65,8.3,9.74,8.3,15.85V165.64C432.36,171.75,428.64,174.56,424.06,171.91Z"/><path class="cls-12" d="M350.89,2.4S340.27,1,338.19,9.34s2.09,20.79,2.09,20.79L352,22Z"/><path class="cls-13" d="M418.84,47.51,351.18,8.84S342.52,7,340.32,15.3c-.52,2,3.88,5.86,10.86,10.57V127.8L410.92,170c4.29,2.47,15.67-1.3,15.67-7V62.33C426.59,56.62,423.12,50,418.84,47.51Z"/><path class="cls-11" d="M409.15,182.08,334.3,11.83l3.89-2.49,73.17,42.25c4.58,2.64,8.3,9.74,8.3,15.85V172.58C419.66,178.69,415.77,182.33,409.15,182.08Z"/><path class="cls-14" d="M407.47,181.34,334.3,139.09V11.83l73.17,42.24c4.59,2.65,8.3,9.75,8.3,15.85V175.06C415.77,181.17,412.06,184,407.47,181.34Z"/><path class="cls-15" d="M400.6,169.56l-54.24-31.32c-2.12-1.22-3.83-4.49-3.83-7.31V29.49c0-2.82,1.71-4.11,3.83-2.89L400.6,57.91c3.83,2.22,6.94,8.15,6.94,13.27v93.13C407.54,169.42,404.43,171.77,400.6,169.56Z"/><path class="cls-11" d="M396.6,148.65l-43.13-24.91c-2.16-1.24-3.93-4.62-3.93-7.5h0c0-2.88,1.77-4.22,3.93-3l43.13,24.9c2.16,1.25,3.93,4.63,3.93,7.51h0C400.53,148.56,398.76,149.89,396.6,148.65Z"/><ellipse class="cls-11" cx="375.04" cy="83.96" rx="19.72" ry="34.15" transform="translate(8.26 198.77) rotate(-30)"/><path class="cls-11" d="M354.25.06c-23-1-19.95,11.77-19.95,11.77l3.89-2.49s2.4-6.65,12.7-6.94Z"/><path class="cls-11" d="M205.07,193.28s-3-2.2-3.48-10.44,13.82-10.64,13.82-10.64h11.82v13.16Z"/><path class="cls-16" d="M283,241.61l-77.92-45v-3.34L402.44,172.2c2.5,4.85,2.18,9.39-3.45,12.64l-97,56C296.39,244.07,287.87,244.43,283,241.61Z"/><path class="cls-11" d="M283,238.26l-77.92-45,117.36-67.76,77.92,45c4.88,2.82,4.27,7.74-1.36,11l-97,56C296.39,240.73,287.87,241.08,283,238.26Z"/><path class="cls-1" d="M395.78,163.66l-10,3L318.8,128l-112.69,50.3s-1.77,8.76,1.4,13.51l.05.41,73.85,42.64c4.63,2.67,12.71,2.34,18-.75L391.36,181c2.75-1.59,4.23-3.6,4.39-5.54l0,0Z"/><path class="cls-16" d="M283,222.65l-77.92-45V174.1L402.43,153c2.54,4.27,2.19,9.63-3.44,12.88l-97,56C296.39,225.12,287.87,225.47,283,222.65Z"/><path class="cls-14" d="M283,219.09l-77.92-45,117.36-67.76,77.92,45c4.88,2.82,4.27,7.74-1.36,11l-97,56C296.39,221.55,287.87,221.9,283,219.09Z"/><path class="cls-16" d="M282.87,210.7l-57.76-33.35c-2.25-1.3-2-3.57.63-5.06l93.55-54c2.6-1.5,6.53-1.66,8.78-.36l57.76,33.35c4.08,2.35,3.57,6.47-1.14,9.19L298.8,210C294.08,212.76,287,213.06,282.87,210.7Z"/><path class="cls-11" d="M295.77,198.34l-45.93-26.52c-2.3-1.33-2-3.67.65-5.2h0c2.65-1.54,6.71-1.71,9-.38l45.93,26.52c2.3,1.33,2,3.67-.65,5.2h0C302.13,199.5,298.07,199.67,295.77,198.34Z"/><ellipse class="cls-11" cx="320.97" cy="157.27" rx="36.37" ry="21"/><path class="cls-16" d="M205.07,196.62s-4.82-3.75-4.82-13.78c0-7.13,4.82-8.74,4.82-8.74v3.56s-4.82,5.18,0,15.62Z"/><path class="cls-2" d="M217.42,165.63s-2.8-2-3.21-9.63S227,146.18,227,146.18h10.91v12.15Z"/><path class="cls-3" d="M289.34,210.25l-71.92-41.53v-3.09L399.6,146.18c2.31,4.48,2,8.66-3.19,11.67l-89.5,51.67C301.71,212.52,293.85,212.85,289.34,210.25Z"/><path class="cls-2" d="M289.34,207.16l-71.92-41.53,108.33-62.54,71.92,41.52c4.51,2.6,3.94,7.15-1.26,10.15l-89.5,51.67C301.71,209.43,293.85,209.76,289.34,207.16Z"/><path class="cls-1" d="M393.45,138.3,384.21,141,322.4,105.34l-104,46.44s-1.63,8.08,1.3,12.47l0,.37L287.89,204c4.27,2.47,11.72,2.16,16.65-.69l84.83-49c2.54-1.47,3.91-3.33,4.05-5.12l0,0Z"/><path class="cls-3" d="M289.34,192.75l-71.92-41.53v-3.29l182.17-19.47c2.35,3.94,2,8.89-3.18,11.89L306.91,192C301.71,195,293.85,195.35,289.34,192.75Z"/><path class="cls-4" d="M289.34,189.46l-71.92-41.53L325.75,85.39l71.92,41.52c4.51,2.6,3.94,7.14-1.26,10.15l-89.5,51.67C301.71,191.73,293.85,192.06,289.34,189.46Z"/><ellipse class="cls-17" cx="324.4" cy="132.4" rx="33.57" ry="19.38"/><path class="cls-3" d="M217.42,168.72S213,165.26,213,156c0-6.58,4.45-8.07,4.45-8.07v3.29s-4.45,4.78,0,14.41Z"/><path class="cls-18" d="M220.16,141.4s-2.62-1.9-3-9,12-9.22,12-9.22h10.23v11.4Z"/><path class="cls-19" d="M287.61,183.24,220.16,144.3v-2.9L391,123.15c2.16,4.21,1.88,8.13-3,10.95l-83.92,48.45C299.21,185.37,291.83,185.67,287.61,183.24Z"/><path class="cls-18" d="M287.61,180.34,220.16,141.4,321.75,82.75l67.45,38.94c4.22,2.44,3.69,6.7-1.19,9.51l-83.92,48.46C299.21,182.47,291.83,182.78,287.61,180.34Z"/><path class="cls-1" d="M385.23,115.77l-8.66,2.56-58-33.47-97.54,43.55s-1.52,7.57,1.22,11.69l0,.35,63.93,36.91c4,2.31,11,2,15.61-.65l79.55-45.92c2.38-1.38,3.66-3.12,3.8-4.8l0,0Z"/><path class="cls-19" d="M287.61,166.83l-67.45-38.94V124.8L391,106.54c2.21,3.69,1.9,8.34-3,11.15l-83.92,48.45C299.21,169,291.83,169.27,287.61,166.83Z"/><path class="cls-20" d="M287.61,163.74,220.16,124.8,321.75,66.15l67.45,38.94c4.22,2.44,3.69,6.7-1.19,9.51l-83.92,48.46C299.21,165.87,291.83,166.18,287.61,163.74Z"/><path class="cls-21" d="M287.51,156.48l-50-28.86c-1.95-1.13-1.7-3.09.55-4.39l81-46.75c2.25-1.3,5.65-1.44,7.6-.32l50,28.87c3.54,2,3.09,5.6-1,8l-74.34,42.92C297.21,158.27,291,158.52,287.51,156.48Z"/><path class="cls-20" d="M298.67,145.78l-39.75-23c-2-1.15-1.74-3.18.56-4.51h0c2.3-1.32,5.81-1.47,7.8-.32L307,141c2,1.14,1.74,3.17-.56,4.5h0C304.17,146.79,300.66,146.93,298.67,145.78Z"/><ellipse class="cls-20" cx="320.49" cy="110.23" rx="31.48" ry="18.17"/><path class="cls-19" d="M220.16,144.3S216,141.05,216,132.37c0-6.17,4.16-7.57,4.16-7.57v3.09s-4.16,4.48,0,13.51Z"/><path class="cls-1" d="M271.1,259.12l-119.53-69c-5.76-3.32-15.4-3-21.94.81L67.82,226.59c-3.81,2.2-6,5.31-6,8.52,0,2.83,1.63,5.33,4.59,7l119.54,69a19.69,19.69,0,0,0,9.71,2.28,25,25,0,0,0,12.23-3.08l61.81-35.69c3.81-2.2,6-5.3,6-8.52C275.7,263.33,274.07,260.83,271.1,259.12Z"/><path class="cls-22" d="M273.2,257.87h0c.05-1.88-1-3.68-3.34-5l-119.53-69c-5-2.87-13.71-2.51-19.44.8L69.07,220.35c-3.17,1.83-4.77,4.19-4.74,6.42h0v8.56h0c.09,1.74,1.19,3.4,3.34,4.65l119.54,69c5,2.86,13.71,2.5,19.44-.81l61.81-35.68c3.17-1.83,4.77-4.19,4.73-6.42h0Z"/><path class="cls-23" d="M269.85,252.87l-73.54-42.46v100.5a22.34,22.34,0,0,0,10.34-2.72l61.81-35.68c3.17-1.83,4.77-4.19,4.73-6.42h0v-8.22h0C273.24,256,272.15,254.19,269.85,252.87Z"/><path class="cls-24" d="M75.41,241.59l15.18,8.77c.64.37,1.16,0,1.16-.88h0a2.82,2.82,0,0,0-1.16-2.24l-15.18-8.76c-.65-.37-1.17,0-1.17.88h0A2.78,2.78,0,0,0,75.41,241.59Z"/><path class="cls-24" d="M95.22,253.25,110.4,262c.65.37,1.17,0,1.17-.89h0a2.79,2.79,0,0,0-1.17-2.23l-15.18-8.76c-.64-.38-1.17,0-1.17.88h0A2.81,2.81,0,0,0,95.22,253.25Z"/><path class="cls-24" d="M246.23,282.7,231,291.47c-.64.37-1.16,0-1.16-.89h0a2.81,2.81,0,0,1,1.16-2.23l15.19-8.76c.64-.38,1.16,0,1.16.88h0A2.8,2.8,0,0,1,246.23,282.7Z"/><path class="cls-1" d="M268.46,264.1l-61.81,35.68c-5.73,3.31-14.48,3.67-19.44.8l-119.54-69c-5-2.86-4.33-7.92,1.4-11.22l61.81-35.69c5.73-3.31,14.48-3.67,19.44-.8l119.53,69C274.82,255.73,274.19,260.79,268.46,264.1Z"/><path class="cls-7" d="M255,255.2,191.24,292c-5.19,3-13.11,3.33-17.6.73L77.27,237.11c-4.49-2.59-3.93-7.17,1.26-10.16l63.78-36.83c5.19-3,13.11-3.32,17.61-.73L256.29,245C260.78,247.63,260.21,252.2,255,255.2Z"/><path class="cls-25" d="M251.19,254.58l-61,35.23c-5,2.86-12.54,3.18-16.84.69L81.16,237.28c-4.3-2.48-3.75-6.85,1.21-9.72l61-35.22c5-2.87,12.54-3.18,16.83-.7l92.18,53.22C256.69,247.34,256.15,251.72,251.19,254.58Z"/><path class="cls-7" d="M108.58,204.09c1.62.93,1.62,2.45,0,3.38a6.44,6.44,0,0,1-5.86,0c-1.62-.93-1.62-2.45,0-3.38A6.5,6.5,0,0,1,108.58,204.09Z"/><path class="cls-13" d="M107,205a.79.79,0,0,1,0,1.5,2.9,2.9,0,0,1-2.6,0,.79.79,0,0,1,0-1.5A2.9,2.9,0,0,1,107,205Z"/><path class="cls-26" d="M113.79,201.08c.72.41.72,1.08,0,1.5a2.88,2.88,0,0,1-2.59,0c-.72-.42-.72-1.09,0-1.5A2.88,2.88,0,0,1,113.79,201.08Z"/><path class="cls-6" d="M117.49,198.94c.41.24.41.62,0,.85a1.59,1.59,0,0,1-1.47,0,.45.45,0,0,1,0-.85A1.65,1.65,0,0,1,117.49,198.94Z"/><ellipse class="cls-13" cx="99.32" cy="209.44" rx="1.04" ry="0.6"/><path class="cls-7" d="M236.43,279l-4.05,2.34a5.22,5.22,0,0,1-4.67.19L223,278.75c-1.19-.68-1-1.9.34-2.69l4.06-2.34a5.2,5.2,0,0,1,4.66-.2l4.73,2.73C238,276.94,237.81,278.15,236.43,279Z"/><path class="cls-1" d="M234.59,278.54l-2.92,1.68a3.72,3.72,0,0,1-3.35.14l-3.39-2c-.86-.49-.75-1.36.24-1.93l2.91-1.69a3.75,3.75,0,0,1,3.35-.14l3.4,2C235.68,277.1,235.57,278,234.59,278.54Z"/><path class="cls-13" d="M228.2,280.29,225,278.47a1,1,0,0,1,0-1.93l3.17-1.83a3.71,3.71,0,0,1,3.34,0Z"/><path class="cls-7" d="M157.54,199.08,94.05,235.74a3.77,3.77,0,0,1-3.39.14l-.24-.14c-.86-.5-.75-1.38.25-2l63.48-36.65a3.79,3.79,0,0,1,3.4-.14l.23.13C158.65,197.63,158.54,198.51,157.54,199.08Z"/><path class="cls-7" d="M195.48,221,132,257.64a3.77,3.77,0,0,1-3.39.14l-.24-.13c-.86-.5-.75-1.38.25-2L192.09,219a3.79,3.79,0,0,1,3.4-.15l.23.14C196.59,219.53,196.48,220.41,195.48,221Z"/><path class="cls-7" d="M214.45,231.94,151,268.6a3.8,3.8,0,0,1-3.39.14l-.24-.14c-.86-.5-.75-1.38.25-2L211.06,230a3.79,3.79,0,0,1,3.4-.14l.23.13C215.56,230.48,215.45,231.37,214.45,231.94Z"/><path class="cls-7" d="M156.3,210.75l-52.77,30.47a3.79,3.79,0,0,1-3.4.14l-.23-.13c-.87-.5-.76-1.39.24-2l52.77-30.47a3.77,3.77,0,0,1,3.39-.14l.24.13C157.41,209.29,157.3,210.18,156.3,210.75Z"/><path class="cls-7" d="M175.27,221.71,122.5,252.17a3.79,3.79,0,0,1-3.4.14l-.23-.13c-.87-.5-.76-1.38.24-2l52.77-30.47a3.8,3.8,0,0,1,3.39-.14l.24.14C176.38,220.25,176.27,221.13,175.27,221.71Z"/><path class="cls-7" d="M194.24,232.66l-52.77,30.47a3.82,3.82,0,0,1-3.4.14l-.23-.14c-.87-.5-.76-1.38.24-2l52.77-30.46a3.79,3.79,0,0,1,3.4-.15l.23.14C195.35,231.2,195.24,232.08,194.24,232.66Z"/><path class="cls-7" d="M213.21,243.61l-52.77,30.47a3.79,3.79,0,0,1-3.4.14l-.23-.14c-.87-.5-.76-1.38.24-2l52.77-30.46a3.79,3.79,0,0,1,3.4-.14l.23.13C214.32,242.15,214.21,243,213.21,243.61Z"/><path class="cls-7" d="M158.89,220.21,113,246.7a3.77,3.77,0,0,1-3.39.14l-.24-.13c-.86-.5-.75-1.39.25-2l45.89-26.5a3.8,3.8,0,0,1,3.39-.14l.24.14C160,218.75,159.89,219.63,158.89,220.21Z"/><path class="cls-7" d="M215.8,253.07l-45.88,26.49a3.79,3.79,0,0,1-3.4.14l-.23-.14c-.87-.5-.76-1.38.24-1.95l45.89-26.5a3.77,3.77,0,0,1,3.39-.14l.24.14C216.91,251.61,216.8,252.49,215.8,253.07Z"/><path class="cls-7" d="M208,268.52l-28.63,16.53a3.77,3.77,0,0,1-3.39.14l-.24-.14c-.86-.5-.75-1.38.25-2l28.62-16.53a3.82,3.82,0,0,1,3.4-.14l.23.14C209.12,267.06,209,267.94,208,268.52Z"/><path class="cls-27" d="M173.64,292.75,77.27,237.11c-4.49-2.59-3.93-7.17,1.26-10.16l63.78-36.83c5.19-3,13.11-3.32,17.61-.73Z"/><path class="cls-1" d="M0,232.91H0s22.51,5.94,25.63,7.84l119.66,72.93a6.65,6.65,0,0,1,2.22,9.12h0a6.67,6.67,0,0,1-9.13,2.22L18.71,252.09C15.59,250.19,0,232.91,0,232.91Z"/><path class="cls-4" d="M3.78,227.78h0s22.5,5.93,25.62,7.84l119.67,72.92a6.67,6.67,0,0,1,2.22,9.13h0a6.67,6.67,0,0,1-9.13,2.22L22.49,247C19.37,245.06,3.78,227.78,3.78,227.78Z"/><path class="cls-28" d="M3.78,227.78h0s20.35,9.47,23.47,11.37l119.67,72.93c3.12,1.9,5.08,4.42,4.37,5.59h0c-.72,1.18-3.86.58-7-1.32L24.65,243.42C21.53,241.52,3.78,227.78,3.78,227.78Z"/><path class="cls-1" d="M22.49,247c-3.12-1.9-18.71-19.18-18.71-19.18h0s22.5,5.93,25.62,7.84Z"/><path class="cls-28" d="M12.94,237.69l3.85-6.31c-6.51-1.89-13-3.6-13-3.6S8.29,232.77,12.94,237.69Z"/><rect class="cls-1" x="130.69" y="299.79" width="13.28" height="18.76" transform="matrix(-0.52, 0.85, -0.85, -0.52, 472.8, 352.78)"/><rect class="cls-29" x="122.57" y="303.71" width="15.56" height="2.41" rx="1.18" transform="translate(458.56 352.28) rotate(121.36)"/><rect class="cls-29" x="136.11" y="311.95" width="15.56" height="2.41" rx="1.18" transform="translate(486.18 353.26) rotate(121.36)"/><path class="cls-4" d="M151.29,317.67a6.67,6.67,0,0,0-2.22-9.13l-.7-.42-6.91,11.34.7.43A6.67,6.67,0,0,0,151.29,317.67Z"/><path class="cls-1" d="M284.72,420.43h0S300.86,403.87,304,402l120.73-71.14a6.39,6.39,0,0,1,8.81,1.86h0c1.7,2.88.51,6.76-2.64,8.61L310.18,412.49C307,414.34,284.72,420.43,284.72,420.43Z"/><path class="cls-20" d="M284.72,415h0s16.14-16.56,19.29-18.41l120.73-71.15a6.39,6.39,0,0,1,8.81,1.86h0c1.7,2.88.51,6.76-2.64,8.61L310.18,407.09C307,408.94,284.72,415,284.72,415Z"/><path class="cls-30" d="M284.72,415h0s18.06-13.3,21.21-15.15l120.74-71.15c3.14-1.85,6.24-2.48,6.88-1.4h0c.64,1.09-1.41,3.49-4.56,5.35L308.25,403.82C305.11,405.68,284.72,415,284.72,415Z"/><path class="cls-1" d="M310.18,407.09C307,408.94,284.72,415,284.72,415h0s16.14-16.56,19.29-18.41Z"/><path class="cls-31" d="M297.63,411.36l-3.44-5.83c-4.8,4.71-9.47,9.5-9.47,9.5S291.17,413.27,297.63,411.36Z"/><rect class="cls-1" x="413.39" y="326.25" width="12.16" height="18.76" transform="translate(495.67 -196.15) rotate(59.49)"/><rect class="cls-5" x="405.31" y="338.57" width="14.24" height="2.41" rx="1.13" transform="translate(495.78 -188.05) rotate(59.49)"/><rect class="cls-5" x="418.96" y="330.53" width="14.24" height="2.41" rx="1.13" transform="translate(495.58 -203.77) rotate(59.49)"/><path class="cls-4" d="M433.55,327.33a6.39,6.39,0,0,0-8.81-1.86l-.7.41,6.17,10.48.7-.42C434.06,334.09,435.25,330.21,433.55,327.33Z"/><path class="cls-1" d="M194.24,384.23l-71.51,41.28a6.07,6.07,0,0,1-6.06,0L5,361.16a6.06,6.06,0,0,1,0-10.5l65.45-37.78c5.48-3.17,13.78-3.51,18.53-.77l106.62,61.42C200.32,376.27,199.72,381.06,194.24,384.23Z"/><path class="cls-28" d="M194.24,381.15l-74.54,43-114.26-66,74.53-43c5.49-3.17,13.79-3.51,18.54-.77l99.2,54C200,374,199.72,378,194.24,381.15Z"/><path class="cls-2" d="M194.24,377.29l-74.54,43-114.26-66,74.53-43c5.49-3.17,13.79-3.51,18.54-.77l97.06,56C200.32,369.33,199.72,374.12,194.24,377.29Z"/><path class="cls-1" d="M192.45,353.85l-12,6.56L96.65,312c-4.53-2.62-12.46-2.29-17.7.73L7.73,353.88l109.18,63,71.21-41.12c2.81-1.62,4.27-3.69,4.32-5.67h0Z"/><path class="cls-28" d="M194.24,356.68l-74.54,43-114.26-66,74.53-43c5.49-3.17,13.79-3.52,18.54-.77l99.2,54C200,349.52,199.72,353.51,194.24,356.68Z"/><path class="cls-4" d="M194.24,352.82l-74.54,43-114.26-66,74.53-43c5.49-3.17,13.79-3.51,18.54-.77l97.06,56C200.32,344.86,199.72,349.65,194.24,352.82Z"/><path class="cls-2" d="M180.31,352.76,125.8,384.23c-2.53,1.46-6.35,1.62-8.54.36L25,331.29c-2.19-1.26-1.92-3.47.61-4.93l54.51-31.47c4.59-2.65,11.53-2.94,15.51-.64l85.85,49.56C185.4,346.1,184.9,350.11,180.31,352.76Z"/><path class="cls-4" d="M159.6,345.43l-42.76,24.69c-2.78,1.6-7,1.78-9.43.39l-.65-.38c-2.4-1.39-2.1-3.83.68-5.44L150.2,340c2.78-1.6,7-1.78,9.42-.39l.66.38C162.68,341.38,162.38,343.83,159.6,345.43Z"/><path class="cls-28" d="M119.72,395.85l0,3.86s-3.55,8.9,0,20.61l0,3.86S106.53,409.82,119.72,395.85Z"/><path class="cls-2" d="M119.72,395.85s-8.49,12.35,0,28.33l-114.28-66c-8.49-16,0-28.33,0-28.33Z"/><path class="cls-32" d="M180.63,353.13l-61.41,35.46L25.07,334.23l61.41-35.46c4.52-2.61,11.36-2.89,15.27-.63L183.5,342.6C185.36,347.24,185.15,350.52,180.63,353.13Z"/><path class="cls-33" d="M180.63,350l-61.41,35.46L25.07,331.05,86.48,295.6C91,293,97.84,292.7,101.75,295l80,46.18C185.64,343.4,185.15,347.34,180.63,350Z"/><path class="cls-1" d="M179.16,330.64l-9.88,5.41-69-39.87c-3.74-2.16-10.28-1.89-14.6.6L27,330.66l89.95,51.94,58.68-33.88c2.32-1.34,3.52-3.05,3.56-4.68h0Z"/><path class="cls-32" d="M180.63,333l-61.41,35.46L25.07,314.07l61.41-35.46C91,276,97.84,275.72,101.75,278l81.75,44.46C185.36,327.07,185.15,330.36,180.63,333Z"/><path class="cls-6" d="M180.63,329.79l-61.41,35.46L25.07,310.89l61.41-35.46c4.52-2.61,11.36-2.89,15.27-.63l80,46.17C185.64,323.23,185.15,327.18,180.63,329.79Z"/><path class="cls-7" d="M169.16,329.74l-44.92,25.93a7.79,7.79,0,0,1-7,.3L41.14,312.05c-1.8-1-1.58-2.86.51-4.06l44.91-25.93c3.78-2.19,9.5-2.43,12.78-.53l70.74,40.84C173.35,324.26,172.94,327.56,169.16,329.74Z"/><path class="cls-6" d="M152.09,323.7l-35.23,20.35c-2.29,1.32-5.79,1.46-7.77.32l-.54-.31c-2-1.15-1.73-3.17.56-4.49l35.23-20.34c2.29-1.32,5.79-1.47,7.77-.32l.54.31C154.63,320.36,154.38,322.38,152.09,323.7Z"/><path class="cls-32" d="M119.24,365.25l0,3.18a28,28,0,0,0,0,17l0,3.18S110.32,378.45,119.24,365.25Z"/><path class="cls-33" d="M119.24,365.25s-7,10.17,0,23.34L25.07,334.23c-7-13.17,0-23.34,0-23.34Z"/><path class="cls-1" d="M271.56,397.86,207.78,361a2.34,2.34,0,0,1,0-4.06l63.78-36.83a2.33,2.33,0,0,1,2.34,0L337.69,357a2.35,2.35,0,0,1,0,4.06L273.9,397.86A2.38,2.38,0,0,1,271.56,397.86Z"/><polygon class="cls-18" points="272.73 394.35 211.5 359 211.5 331.96 272.73 367.31 272.73 394.35"/><polygon class="cls-21" points="272.73 367.31 211.5 331.96 272.73 296.62 333.96 331.96 272.73 367.31"/><polygon class="cls-19" points="272.73 367.31 272.73 394.35 333.96 359 333.96 331.96 272.73 367.31"/><path class="cls-20" d="M272.73,296.62,334,332l-11.4,6.58s-30.38,17.3-63.38,14.71l-52.3-29.08s28.39-5.23,54.63-21.08Z"/><path class="cls-1" d="M394.13,319.67l-9.48-5.48a3,3,0,0,0,1.2-2.35,3,3,0,0,0-1.57-2.62L341.45,284.5c-9.41-5.43-24.14-5.43-33.55,0-4.95,2.85-7.67,6.81-7.67,11.12s2.72,8.27,7.68,11.13l42.83,24.73a4.17,4.17,0,0,0,4,0l2.53-1.46,11.95,6.9a4.28,4.28,0,0,0,2.12.56,3.88,3.88,0,0,0,1.93-.5l20.94-12.09a2.94,2.94,0,0,0,1.52-2.55A3.08,3.08,0,0,0,394.13,319.67Z"/><path class="cls-33" d="M309.15,275.07h0c8.58-4.94,22.48-4.94,31.05,0L383,299.8c.34.2.4.49.2.72l.12,9.93h0a.49.49,0,0,1-.29.54l-29.5,17a1.67,1.67,0,0,1-1.54,0l-42.84-24.73c-4.53-2.62-6.64-6.1-6.38-9.53h0v-9.59h0C302.69,280.86,304.82,277.58,309.15,275.07Z"/><path class="cls-6" d="M309.15,275.07h0c8.58-4.94,22.48-4.94,31.05,0l12.46,7.2v45.91a1.34,1.34,0,0,1-.35-.05A1,1,0,0,1,352,328l-42.84-24.73c-4.53-2.62-6.64-6.1-6.38-9.53h0v-9.59h0C302.69,280.86,304.82,277.58,309.15,275.07Z"/><path class="cls-7" d="M309.15,293,352,317.73a1.74,1.74,0,0,0,1.54,0l29.5-17c.43-.24.43-.64,0-.89L340.2,275.07c-8.57-4.94-22.47-4.94-31.05,0h0C300.58,280,300.58,288.05,309.15,293Z"/><path class="cls-33" d="M320,286.16c-2.31-1.34-2.31-3.5,0-4.84a9.28,9.28,0,0,1,8.37,0c2.31,1.34,2.31,3.5,0,4.84A9.28,9.28,0,0,1,320,286.16Z"/><path class="cls-34" d="M369.2,319l10.48-6.06,4.28,2.47,9.31-4.73v10.46l0,0a.49.49,0,0,1-.24.3l-20.94,12.09a1.71,1.71,0,0,1-1.55-.07l-13.21-7.62V315.55Z"/><path class="cls-5" d="M371.18,317.82v15.83a1.5,1.5,0,0,1-.67-.2l-13.21-7.62V315.55L369.2,319Z"/><path class="cls-1" d="M372.06,323.23,393,311.14c.4-.23.35-.63-.11-.89l-13.21-7.62L357.3,315.55l13.21,7.62A1.74,1.74,0,0,0,372.06,323.23Z"/><path class="cls-5" d="M382.41,317.25l.23-.13c.06,0,.05-.09,0-.12l-13.92-8-.43.25,13.92,8A.22.22,0,0,0,382.41,317.25Z"/><path class="cls-5" d="M385.61,313.09l3.42-2c.23-.14.2-.37-.07-.52L387,309.49a1,1,0,0,0-.89,0l-3.42,2c-.23.14-.21.37.06.52l1.93,1.11A1,1,0,0,0,385.61,313.09Z"/><path class="cls-5" d="M371.87,321l3.42-2c.23-.13.2-.37-.07-.52l-1.92-1.11a1,1,0,0,0-.9,0l-3.42,2c-.23.14-.2.37.06.52L371,321A1,1,0,0,0,371.87,321Z"/><path class="cls-35" d="M374.63,330.65l16.89-9.76a.78.78,0,0,0,.4-.68v-5.85a.8.8,0,0,0-1.19-.69l-16.89,9.75a.81.81,0,0,0-.4.69V330A.8.8,0,0,0,374.63,330.65Z"/><path class="cls-36" d="M390.9,321.25l-16.27,9.4a.8.8,0,0,1-1.19-.69v-5.85a.81.81,0,0,1,.4-.69l13.81-8,3.9,2.25Z"/><path class="cls-33" d="M391.19,317.75a.49.49,0,0,1,.73.42v2a.78.78,0,0,1-.4.68l-16.89,9.76a.8.8,0,0,1-1.19-.69v-1.68a.49.49,0,0,1,.24-.42Z"/><path class="cls-1" d="M354.6,269.26l-13.05-7.54c-6.59-3.8-5.76-10.51,1.85-14.9L393,218.17c7.61-4.39,19.22-4.87,25.81-1.07l13.05,7.54c6.58,3.8,5.75,10.51-1.86,14.9L380.4,268.19C372.8,272.58,361.18,273.06,354.6,269.26Z"/><path class="cls-5" d="M432.22,217.49h0c0-2.26-1.28-4.43-4.06-6l-12-6.91c-6-3.49-16.69-3.05-23.67,1L347,231.81c-3.59,2.07-5.52,4.7-5.74,7.25h0v.21a5,5,0,0,0,0,.67v12.4a5,5,0,0,0,0,.67v.09h0c.18,2,1.5,4,4,5.46l12,6.91c6,3.49,16.7,3.05,23.68-1l45.51-26.28c3.79-2.19,5.73-5,5.76-7.66h0Z"/><path class="cls-2" d="M404.06,238.05l-43.59-14L347,231.81c-3.59,2.07-5.52,4.7-5.74,7.25h0v.21a5,5,0,0,0,0,.67v12.4a5,5,0,0,0,0,.67v.09h0c.18,2,1.5,4,4,5.46l12,6.91c6,3.49,16.7,3.05,23.68-1l23.13-13.36Z"/><path class="cls-1" d="M357.25,252.39l-12-6.91c-6-3.49-5.28-9.64,1.7-13.67l45.52-26.28c7-4,17.63-4.47,23.67-1l12,6.91c6.05,3.49,5.28,9.64-1.7,13.67l-45.51,26.28C374,255.43,363.29,255.88,357.25,252.39Z"/><path class="cls-4" d="M401.74,236.52l-29-16.73a5.51,5.51,0,0,0-5,0l-20.82,12c-7,4-7.74,10.18-1.7,13.67l12,6.91c6,3.49,16.7,3,23.68-1l23.13-13.36C402.85,237.23,402,236.66,401.74,236.52Z"/></g></g></svg>