<svg width="20" height="auto" viewBox="0 0 207 185" xmlns="http://www.w3.org/2000/svg" xmlns:xlink="http://www.w3.org/1999/xlink" overflow="hidden"><g transform="matrix(0.1 0 0 -0.1 0 185)"><path d="M645 1556C568 1537 511 1503 443 1437 315 1314 280 1230 273 1020 270 933 272 845 279 800 311 591 464 428 669 384 705 377 747 370 761 370L788 370 773 420C753 490 774 563 829 612 850 632 873 649 880 652 889 655 888 669 875 713 860 764 860 775 873 820 888 869 887 870 866 870 855 870 822 881 793 894 697 939 660 1020 660 1188 660 1289 674 1320 719 1320 764 1320 770 1305 770 1185 770 1054 784 1015 843 986 895 961 940 971 980 1016L1011 1052 1008 1250 1005 1448 974 1487C923 1549 889 1564 785 1567 735 1568 673 1564 645 1556Z" fill="#FFC936"/><path d="M1120 1370 1120 1269 1464 1272 1808 1275 1834 1299C1871 1334 1871 1406 1834 1441L1808 1465 1464 1468 1120 1471 1120 1370Z" fill="#FFC936"/><path d="M1171 1157C1123 1129 1108 1072 1135 1021 1156 978 1195 968 1309 972 1398 975 1411 978 1434 999 1471 1034 1471 1106 1434 1141 1411 1163 1399 1165 1302 1168 1226 1169 1188 1166 1171 1157Z" fill="#FFC936"/><path d="M1021 856C973 829 958 772 985 721 1007 677 1043 668 1183 672 1300 675 1310 677 1334 699 1371 734 1371 806 1334 841 1310 864 1301 865 1177 868 1080 869 1039 867 1021 856Z" fill="#FFC936"/><path d="M921 556C873 529 858 472 885 421 907 377 943 368 1083 372 1200 375 1210 377 1234 399 1271 434 1271 506 1234 541 1210 564 1201 565 1077 568 980 569 939 567 921 556Z" fill="#FFC936"/></g></svg>