<?xml version="1.0" standalone="no"?>
<!DOCTYPE svg PUBLIC "-//W3C//DTD SVG 20010904//EN"
 "http://www.w3.org/TR/2001/REC-SVG-20010904/DTD/svg10.dtd">
<svg version="1.0" xmlns="http://www.w3.org/2000/svg"
 width="550.000000pt" height="438.000000pt" viewBox="0 0 550.000000 438.000000"
 preserveAspectRatio="xMidYMid meet">

<g transform="translate(0.000000,438.000000) scale(0.100000,-0.100000)"
fill="#FFC936" stroke="none">
<path d="M2691 4344 c-20 -25 -21 -39 -21 -270 l0 -244 75 0 75 0 0 244 c0
231 -1 245 -21 270 -15 19 -30 26 -54 26 -24 0 -39 -7 -54 -26z"/>
<path d="M2715 3703 c-70 -3 -93 -7 -102 -20 -9 -12 -13 -62 -13 -165 l0 -148
146 0 145 0 -3 145 c-4 192 -5 193 -173 188z"/>
<path d="M1260 3369 c-257 -30 -514 -146 -688 -313 -162 -155 -249 -335 -265
-546 l-5 -65 43 92 c145 308 387 527 701 633 138 47 227 62 401 69 l163 6 -63
68 -63 67 -74 -1 c-41 -1 -109 -5 -150 -10z"/>
<path d="M3958 3334 c-26 -27 -55 -59 -63 -71 l-16 -23 108 0 c227 0 413 -39
591 -125 271 -131 457 -321 579 -593 l34 -77 -6 70 c-27 305 -216 565 -520
718 -161 80 -362 133 -553 144 l-107 6 -47 -49z"/>
<path d="M2008 3224 c-45 -24 -49 -64 -46 -402 3 -289 4 -309 24 -347 12 -22
36 -49 55 -60 33 -19 52 -20 699 -20 l665 0 36 23 c71 44 74 58 77 414 3 355
1 367 -63 394 -52 21 -1407 20 -1447 -2z"/>
<path d="M1630 3090 c-17 -17 -20 -33 -20 -103 0 -74 3 -86 23 -105 29 -27 67
-28 98 -3 21 16 24 30 27 98 3 68 1 81 -18 106 -27 34 -80 37 -110 7z"/>
<path d="M3747 3092 c-13 -14 -17 -39 -17 -105 0 -98 16 -127 69 -127 56 0 71
25 74 121 2 73 -1 90 -17 108 -25 27 -86 29 -109 3z"/>
<path d="M4448 3010 c127 -48 193 -86 297 -168 l80 -63 -76 73 c-87 84 -156
124 -289 167 -130 43 -136 38 -12 -9z"/>
<path d="M4289 2837 c-76 -50 -86 -138 -24 -205 32 -35 37 -37 95 -37 58 0 63
2 95 37 19 20 37 52 40 72 14 73 -58 156 -135 156 -22 0 -51 -9 -71 -23z"/>
<path d="M1051 2836 c-38 -21 -50 -55 -51 -137 l0 -77 56 -51 c30 -28 61 -51
69 -51 22 0 125 91 131 117 4 13 4 53 2 90 -4 59 -7 69 -36 94 -28 25 -40 29
-90 29 -31 -1 -68 -7 -81 -14z"/>
<path d="M3949 2540 c-41 -22 -69 -71 -69 -122 0 -80 90 -149 168 -129 73 20
119 92 103 162 -21 93 -116 134 -202 89z"/>
<path d="M4634 2546 c-69 -30 -99 -109 -68 -177 24 -55 64 -81 124 -82 143 -2
192 177 68 253 -38 23 -80 25 -124 6z"/>
<path d="M760 2543 c-31 -11 -70 -58 -76 -91 -9 -48 11 -106 47 -136 27 -23
39 -26 114 -26 l83 0 51 58 c28 31 51 66 51 77 0 12 -23 44 -53 73 l-53 52
-74 -1 c-41 0 -82 -3 -90 -6z"/>
<path d="M1364 2543 c-32 -3 -54 -15 -98 -54 -31 -28 -56 -57 -56 -66 0 -8 24
-40 54 -71 l55 -57 97 0 c95 1 97 1 125 32 50 57 51 128 0 185 -24 27 -35 31
-82 33 -30 2 -72 1 -95 -2z"/>
<path d="M362 2203 c-85 -308 -258 -947 -300 -1108 -44 -170 -47 -187 -46
-305 1 -107 5 -137 27 -205 63 -190 167 -314 326 -392 62 -30 87 -36 160 -40
154 -9 275 34 412 146 111 89 197 197 263 327 31 61 146 353 146 370 0 3 -28
-32 -62 -78 -81 -110 -343 -369 -440 -436 -112 -76 -196 -113 -274 -120 -57
-4 -67 -2 -89 18 -85 80 -99 328 -35 635 10 50 26 110 34 134 9 24 15 46 13
48 -2 1 -31 -45 -65 -105 -94 -165 -151 -315 -173 -448 l-12 -78 -17 39 c-44
105 -56 254 -30 380 6 33 72 283 146 555 l134 495 -19 35 c-27 50 -53 136 -60
198 l-6 53 -33 -118z"/>
<path d="M1051 2256 l-53 -54 4 -77 c3 -70 6 -80 31 -101 23 -20 39 -24 88
-24 70 0 116 20 129 56 6 14 10 54 10 88 l0 63 -54 52 c-34 31 -64 51 -78 51
-15 0 -43 -19 -77 -54z"/>
<path d="M5087 2250 c-4 -34 -21 -95 -39 -138 l-32 -77 32 -125 c18 -69 68
-253 112 -410 130 -461 152 -553 152 -650 0 -91 -21 -200 -49 -253 l-17 -32
-8 75 c-10 91 -27 144 -89 278 -45 96 -146 282 -154 282 -2 0 8 -39 21 -87 50
-182 68 -292 68 -433 1 -204 -36 -296 -125 -320 -73 -20 -207 35 -356 146
-109 81 -304 280 -393 401 -41 56 -76 101 -77 99 -6 -6 114 -302 155 -380 148
-287 364 -454 613 -473 276 -21 521 209 577 541 26 154 16 203 -183 916 -214
767 -195 700 -199 700 -2 0 -6 -27 -9 -60z"/>
<path d="M4314 2256 c-74 -33 -107 -109 -79 -182 52 -137 242 -112 262 34 13
99 -95 186 -183 148z"/>
<path d="M1785 2222 c-120 -41 -194 -107 -249 -222 -29 -60 -31 -73 -31 -170
1 -136 23 -196 105 -284 102 -108 229 -152 372 -128 213 37 363 229 345 442
-14 169 -119 308 -271 360 -76 26 -200 27 -271 2z m256 -115 c171 -84 213
-322 85 -474 -43 -52 -137 -93 -211 -93 -76 0 -165 41 -219 100 -48 53 -81
161 -72 233 15 109 64 179 159 227 57 29 69 31 142 28 50 -2 94 -10 116 -21z"/>
<path d="M1831 2008 c-28 -14 -54 -38 -73 -67 -26 -40 -29 -53 -25 -99 10
-102 86 -177 181 -176 97 0 162 63 173 166 8 84 -31 150 -110 183 -50 21 -94
19 -146 -7z"/>
<path d="M3445 2227 c-136 -45 -224 -134 -266 -266 -89 -287 129 -568 425
-549 141 9 277 100 336 223 101 212 19 460 -187 562 -69 34 -84 38 -172 40
-60 2 -111 -2 -136 -10z m235 -118 c66 -30 106 -64 137 -116 41 -71 54 -133
42 -201 -37 -203 -227 -307 -404 -224 -223 106 -233 417 -16 529 53 28 73 33
129 33 46 0 81 -7 112 -21z"/>
<path d="M3507 2016 c-132 -49 -158 -216 -47 -309 63 -54 145 -59 211 -14 51
34 74 81 74 153 0 55 -4 67 -31 101 -57 70 -134 96 -207 69z"/>
<path d="M2447 2162 c-33 -37 -13 -92 33 -92 54 0 80 58 42 93 -24 22 -55 21
-75 -1z"/>
<path d="M2697 2162 c-33 -37 -11 -92 37 -92 48 0 73 62 38 93 -24 22 -55 21
-75 -1z"/>
<path d="M2948 2169 c-22 -13 -24 -62 -2 -83 18 -19 55 -21 72 -4 18 18 14 63
-6 81 -21 19 -39 21 -64 6z"/>
<path d="M2572 2028 c-30 -30 -2 -88 42 -88 29 0 46 18 46 50 0 33 -17 50 -50
50 -14 0 -31 -5 -38 -12z"/>
<path d="M2812 2028 c-17 -17 -15 -53 4 -72 22 -22 57 -20 80 5 17 19 17 23 3
47 -16 30 -65 42 -87 20z"/>
<path d="M2688 1794 c-79 -42 -78 -178 2 -219 64 -33 142 -2 168 67 40 104
-74 205 -170 152z"/>
<path d="M1823 1225 c-121 -33 -220 -106 -280 -206 -17 -30 -55 -121 -83 -204
-128 -373 -293 -597 -531 -723 -41 -22 -98 -47 -126 -57 -29 -9 -53 -19 -53
-22 0 -10 173 6 230 22 195 52 376 219 493 456 26 52 71 167 102 256 30 90 65
180 79 201 34 54 104 113 162 137 47 19 77 20 852 23 483 2 839 -1 892 -7 184
-20 260 -90 338 -311 105 -296 178 -434 296 -559 134 -141 306 -219 484 -221
50 0 56 15 10 24 -136 25 -343 186 -459 357 -53 78 -144 269 -199 419 -23 63
-58 145 -77 182 -64 123 -174 210 -301 237 -85 18 -1761 14 -1829 -4z"/>
</g>
</svg>
