<?xml version="1.0" standalone="no"?>
<!DOCTYPE svg PUBLIC "-//W3C//DTD SVG 20010904//EN"
 "http://www.w3.org/TR/2001/REC-SVG-20010904/DTD/svg10.dtd">
<svg version="1.0" xmlns="http://www.w3.org/2000/svg"
 width="550.000000pt" height="532.000000pt" viewBox="0 0 550.000000 532.000000"
 preserveAspectRatio="xMidYMid meet">

<g transform="translate(0.000000,532.000000) scale(0.100000,-0.100000)"
fill="#3D5067" stroke="none">
<path d="M2425 5099 c-1084 -112 -1967 -876 -2234 -1935 -52 -205 -65 -325
-65 -599 -1 -287 10 -387 65 -614 86 -353 260 -705 487 -991 149 -187 372
-392 577 -530 461 -309 1068 -468 1610 -421 348 30 626 107 930 256 262 129
443 255 649 455 432 420 689 940 767 1550 26 199 14 521 -27 745 -70 383 -240
770 -474 1080 -402 532 -996 886 -1655 986 -150 23 -488 33 -630 18z m570
-114 c460 -65 877 -248 1232 -542 421 -348 723 -849 833 -1383 42 -204 53
-344 47 -569 -14 -519 -176 -979 -491 -1401 -86 -116 -342 -375 -451 -457
-352 -265 -727 -424 -1155 -490 -160 -24 -518 -24 -685 0 -695 104 -1308 493
-1699 1082 -146 219 -289 558 -345 815 -72 335 -70 732 4 1060 163 725 657
1343 1330 1666 268 128 553 207 855 234 123 11 397 4 525 -15z"/>
<path d="M1200 3724 c-68 -29 -95 -67 -133 -182 l-22 -67 0 -915 0 -915 29
-62 c31 -69 88 -128 158 -165 l43 -23 1377 -3 1377 -2 57 21 c79 30 153 104
182 182 22 58 22 61 22 971 l0 912 -24 72 c-40 118 -70 154 -145 180 -25 9
-395 12 -1460 12 -1251 -1 -1430 -3 -1461 -16z m2860 -127 c49 -26 84 -66 75
-88 -5 -13 -542 -546 -1207 -1197 -212 -208 -228 -222 -263 -222 -35 0 -65 28
-751 706 -393 388 -714 714 -714 723 0 10 12 29 28 44 62 60 -27 56 1443 57
l1346 0 43 -23z m-1961 -1151 c248 -245 460 -445 482 -456 52 -27 125 -26 177
3 23 12 306 284 654 627 337 333 648 639 691 680 l78 74 -3 -854 c-3 -813 -4
-857 -22 -890 -26 -49 -55 -79 -101 -103 l-40 -22 -1340 0 c-1075 0 -1347 3
-1377 13 -47 17 -113 89 -127 138 -7 26 -11 313 -11 879 l0 840 248 -246 c136
-135 447 -442 691 -683z"/>
</g>
</svg>
