<svg xmlns="http://www.w3.org/2000/svg" viewBox="0 0 184.95 207.53"><defs><style>.cls-1,.cls-2{fill:#d77610;}.cls-2{stroke:#d77610;stroke-miterlimit:10;}.cls-3{fill:#d77610;}</style></defs><title>Recurso 6</title><g id="Capa_2" data-name="Capa 2"><g id="Capa_1-2" data-name="Capa 1"><path class="cls-1" d="M64.38,159.71a16.09,16.09,0,0,1,.75-8,28.58,28.58,0,0,1,3.64-7.21,29.69,29.69,0,0,1,5.48-6.07,20.22,20.22,0,0,1,3.56-2.37c.33-.16.67-.32,1-.47l.53-.21.07,0h0c.1,0-.17,0,.23-.07a2.53,2.53,0,0,1,.81,0h.09l.22,0c.6.07,1.22.13,1.84.18,2.47.21,5,.26,7.46.26s5,0,7.52-.1a47.12,47.12,0,0,0,7.55-.82,31.17,31.17,0,0,0,7.23-2.4,32.27,32.27,0,0,0,6.42-4.07,39.48,39.48,0,0,0,5.33-5.33,63.7,63.7,0,0,0,4.42-6c.67-1,1.31-2.1,1.91-3.18.29-.54.6-1.08.87-1.64l.41-.83.27-.5.32-.56a11.4,11.4,0,0,1,3.48-3.5,15.19,15.19,0,0,1,4.22-1.87,21.46,21.46,0,0,1,8.6-.43,22.73,22.73,0,0,1,8,2.64,12.88,12.88,0,0,1,5.7,5.93l-.42.28a15.34,15.34,0,0,0-6.49-3.34,27.25,27.25,0,0,0-7.09-.9,23.06,23.06,0,0,0-6.78,1,9.75,9.75,0,0,0-5,3l-.19.27c-.06.09-.12.17-.21.33l-.52.88c-.34.58-.72,1.14-1.08,1.71-.75,1.13-1.52,2.24-2.36,3.31a37.82,37.82,0,0,1-5.6,5.85,59.55,59.55,0,0,1-13.55,8.31c-2.39,1.1-4.82,2.09-7.3,3a63.69,63.69,0,0,1-7.63,2.38,38.85,38.85,0,0,1-8,1,47.08,47.08,0,0,1-8-.56c-.66-.11-1.33-.24-2-.38l-.26-.06h-.09a2.13,2.13,0,0,0,.75,0l.17-.05h-.07l-.38.12-.76.29a18,18,0,0,0-3,1.73,31.06,31.06,0,0,0-5.39,5,30.73,30.73,0,0,0-4.18,6.15,17.4,17.4,0,0,0-2,7.19Z"/><ellipse class="cls-2" cx="77.03" cy="153.01" rx="2.34" ry="2.27"/><ellipse class="cls-2" cx="78.74" cy="162.45" rx="4.05" ry="3.94"/><ellipse class="cls-2" cx="85.47" cy="155.91" rx="2.03" ry="1.97"/><path class="cls-1" d="M36.32,32.53c-1.25,1.44-2.62,2.73-4,4s-2.77,2.53-4.17,3.78c-2.79,2.49-5.71,4.83-8.54,7.21l-.51.43-.25.21-.51.34c-.62.4-1.05.64-1.24.8l-.06,0-.19.12-.42.26a9.13,9.13,0,0,1-.88.48,7,7,0,0,1-1,.42,6.68,6.68,0,0,1-1,.35,10,10,0,0,1-9.37-2,12.16,12.16,0,0,1-2.86-3.55A12,12,0,0,1,.43,43.3,9.16,9.16,0,0,1,0,40.14,8.58,8.58,0,0,1,1.06,36.5a10.33,10.33,0,0,1,1.88-2.4c.31-.3.6-.56.89-.79l.73-.57,1.09-.86C17.23,22.68,29.2,14,41.39,5.74L46,2.66a20.59,20.59,0,0,1,1.84-1.14A14.3,14.3,0,0,1,50.58.42a11.81,11.81,0,0,1,6.69.13A12.8,12.8,0,0,1,60,1.76a14.68,14.68,0,0,1,2.13,1.52A13.22,13.22,0,0,1,65.64,8a12.2,12.2,0,0,1,1,6.26,10,10,0,0,1-.18,1.14,9.19,9.19,0,0,1-.33,1.14,10.44,10.44,0,0,1-.81,1.73,12.86,12.86,0,0,1-1.71,2.28,14.78,14.78,0,0,1-1.72,1.6l-1,.81c-.25.2-.54.45-.46.36a0,0,0,0,1,0,0l.09-.12.24-.38a5.32,5.32,0,0,0,.33-.7,5.39,5.39,0,0,0,.25-1,4.63,4.63,0,0,0,.05-.51c0-.14,0-.27,0-.41a2.34,2.34,0,0,0,0-.39.85.85,0,0,0,0-.23,1.89,1.89,0,0,0,0-.23l0-.08s-.06-.14,0-.1a.87.87,0,0,0,.06.23c0,.11.1.28.17.46.32.78.6,1.47.93,2.15S63,23.34,63.4,24l.6,1,.68,1.11,2.85,4.76A369.12,369.12,0,0,1,88.65,70.25l-.65.47-12.87-18L62.37,34.62,59.18,30.1a48,48,0,0,1-3-4.71c-.46-.82-.87-1.67-1.27-2.51-.2-.42-.4-.86-.58-1.33a3.45,3.45,0,0,1-.22-1.71,3.05,3.05,0,0,1,.84-1.55,14.3,14.3,0,0,1,1.06-1l1.06-.9a8.61,8.61,0,0,0,.92-.89,3.75,3.75,0,0,0,1.05-2,4.45,4.45,0,0,0-.38-2.31A6.25,6.25,0,0,0,55,8.07a4.93,4.93,0,0,0-4.51,1.14L45.9,12.34,9.23,37.14c-.75.53-1.57,1-2.18,1.55A2.88,2.88,0,0,0,6,40.61a4.81,4.81,0,0,0,.58,2.33A6.85,6.85,0,0,0,8,45a4.91,4.91,0,0,0,4.56,1.23,8.71,8.71,0,0,0,2.4-1c.43-.23.85-.41,1.22-.62s.76-.49,1.14-.72L26.66,38c3.1-2,6.22-4,9.18-6.13Z"/><path class="cls-1" d="M67.94,112.47c-2.4-2.23-4.58-4.63-6.73-7S57,100.52,55,98s-4-5.07-5.88-7.65-3.8-5.25-5.61-7.9Q38,74.46,33,66.21c-3.33-5.52-6.55-11.1-9.58-16.85A178,178,0,0,1,36.09,64.09c4,5.08,7.77,10.28,11.47,15.53l5.52,7.88c1.84,2.64,3.6,5.34,5.33,8.06s3.37,5.5,5,8.3S66.54,109.51,67.94,112.47Z"/><path class="cls-3" d="M167.9,39.44a65.49,65.49,0,0,0-12.09-1.73,66.34,66.34,0,0,0-11.89.35,77.36,77.36,0,0,0-11.4,2.21,53.35,53.35,0,0,0-10.41,4.11,41,41,0,0,0-8.73,5.84,24,24,0,0,0-5.64,7.12,12,12,0,0,0-1.23,6.8,12.64,12.64,0,0,0,2.69,5.92c.4.47.79,1,1.26,1.42.21.23.47.46.7.69l.38.34c.11.09.31.28.28.22a4.35,4.35,0,0,1,.88.44c.48.25,1.11.54,1.8.83a71.24,71.24,0,0,0,9.87,3.29c.9.23,1.8.46,2.68.66l1.28.28.11,0-.11,0,.11,0,.44.1.89.18c2.35.5,4.53,1.1,6.69,1.7s4.27,1.25,6.38,1.93l1.58.52.81.27.41.14.65.25.26.11,2.1,1c.66.31,1.19.59,1.79.89a59,59,0,0,1,12.89,9,69.27,69.27,0,0,1,5.42,5.56,73.7,73.7,0,0,1,4.68,6c.7,1,1.41,2.09,2,3.16s1.31,2.16,1.93,3.32,1.23,2.38,1.75,3.52,1.06,2.36,1.54,3.58a61.82,61.82,0,0,1,3.87,15.3,63.55,63.55,0,0,1-4.25,30.85,67.6,67.6,0,0,1-7.43,13.48,72.06,72.06,0,0,1-4.73,6,64,64,0,0,1-5.41,5.39,69.21,69.21,0,0,1-12.39,8.79,67.51,67.51,0,0,1-43.43,7.41A64.54,64.54,0,0,1,80.1,195.49c-1-.72-1.91-1.44-2.87-2.2s-2-1.62-2.86-2.51a45.57,45.57,0,0,1-5-5.52,53.68,53.68,0,0,1-7.15-12.46,61.32,61.32,0,0,1-3.67-13.38A54.21,54.21,0,0,1,58,145.85a52.62,52.62,0,0,1,1-6.64,45.12,45.12,0,0,1,1.81-6.41,38.89,38.89,0,0,1,6.46-11.33l1.29.77c-4.1,7-5.65,15.35-5.36,23.46a55.24,55.24,0,0,0,6.18,23.4,43.83,43.83,0,0,0,16.14,17.68,55.08,55.08,0,0,0,22.78,7.93,56.45,56.45,0,0,0,24-2.41,58,58,0,0,0,11-5,55,55,0,0,0,9.68-7.28,54.38,54.38,0,0,0,7.86-9.2,53,53,0,0,0,5.66-10.67,49.05,49.05,0,0,0,3.09-23.69,52.8,52.8,0,0,0-26-38.7c-.88-.49-1.77-.93-2.65-1.35-.35-.18-.92-.36-1.38-.53l-1.45-.53q-2.91-1-5.84-2c-2-.62-3.93-1.21-5.9-1.71s-4.06-1.09-6.05-1.71a76.63,76.63,0,0,1-11.74-4.69,23.55,23.55,0,0,1-5.43-3.68,30,30,0,0,1-4.1-5A22.16,22.16,0,0,1,99,51.82a34,34,0,0,1,9-9.15,48.59,48.59,0,0,1,11.24-5.88A67.06,67.06,0,0,1,144,32.84a65,65,0,0,1,24.48,5.23Z"/></g></g></svg>