<svg xmlns="http://www.w3.org/2000/svg" viewBox="0 0 582.63 299.19"><defs><style>.cls-1{fill:#f69f22;}</style></defs><title>Recurso 10</title><g id="Capa_2" data-name="Capa 2"><g id="Capa_1-2" data-name="Capa 1"><path class="cls-1" d="M859.44,1088.25c1.26-6.94,2.6-13.88,3.77-20.84,1.21-7.16,2.22-14.36,3.39-21.53,1-6,2-12.05,3.1-18.07,1.26-7.14,2.56-14.28,3.84-21.42.53-2.93.9-5.89,1.65-8.76s0-4.69-2-6.65q-15.52-14.84-30.86-29.87c-7.36-7.2-14.58-14.56-22-21.77-3.92-3.83-8-7.47-12-11.22-.56-.53-1-1.19-2-2.31,8.37-1.95,16.39-2.48,24.28-3.82s15.68-2.31,23.53-3.45,16-2.4,24-3.53c7.85-1.11,15.71-2.14,24.06-3.26L945.14,825a13.79,13.79,0,0,1,2,2.37q12,24.39,24,48.82c5.17,10.57,10.33,21.15,15.4,31.77,1.15,2.41,2.33,3.88,5.45,4.13,6.73.56,13.4,1.81,20.09,2.84,7.67,1.18,15.32,2.45,23,3.64,3.1.48,6.22.81,9.33,1.27,8.81,1.29,17.61,2.67,26.43,3.92,4.4.62,8.84,1,13.74,1.55a10.56,10.56,0,0,1-1.29,2.24q-19.44,19-39,37.91c-8.84,8.57-17.68,17.14-26.61,25.62a5.94,5.94,0,0,0-2.07,5.74c.51,2.92,1.16,5.82,1.66,8.75.76,4.39,1.4,8.81,2.18,13.2,1.6,9.11,3.28,18.2,4.88,27.3,1.68,9.59,3.38,19.18,5,28.79.74,4.51,1.19,9.06,1.87,14.31-3.09-1.55-5.72-2.82-8.31-4.2-8.48-4.52-16.91-9.15-25.44-13.6-12.09-6.32-24.25-12.49-36.36-18.76-3.39-1.76-6.81-3.49-10-5.56-3.79-2.46-7.08-2.25-11.06-.06-13,7.13-26.12,13.9-39.23,20.75-10.76,5.62-21.58,11.14-32.34,16.75-2.76,1.44-5.44,3-8.16,4.54Z" transform="translate(-654.21 -790.01)"/><path class="cls-1" d="M1120.7,974,1048.5,1012c.42-3.12.7-5.54,1.09-7.93,1.31-8.14,2.61-16.29,4.08-24.41a6.72,6.72,0,0,1,2-3.26c4.3-4.16,8.77-8.14,13.06-12.3,5.15-5,10.17-10.09,15.25-15.14,4-4,8-8,12.06-12,6.34-6.12,12.75-12.16,19.11-18.26,1.17-1.12,2.23-2.36,3.81-4-2.79-.59-4.94-1.15-7.13-1.47-5.71-.82-11.44-1.51-17.16-2.3-5.24-.73-10.46-1.51-15.69-2.29-5.87-.88-11.74-1.79-17.61-2.68-8.15-1.24-16.27-2.88-24.47-3.57-5.17-.44-8.5-3.18-11.8-6.42q-8.91-8.76-17.72-17.62c-1-1-1.92-2.15-3.26-3.67,3.11-.57,5.62-1.12,8.16-1.47,5.72-.8,11.45-1.49,17.18-2.25,5.4-.71,10.81-1.4,16.21-2.19,6-.88,12.06-1.87,18.09-2.8,5.7-.88,11.39-1.95,17.12-2.55,3.17-.33,4.52-2.08,5.72-4.65q5.8-12.39,11.88-24.64c6.56-13.27,13.21-26.5,19.84-39.74.57-1.14,1.25-2.23,2.28-4.06,12.39,24.4,24.15,48.29,35.92,72.6l80.28,11.63a32,32,0,0,1-2,2.61c-6.59,6.59-13.17,13.21-19.84,19.74-10.82,10.58-21.62,21.2-32.65,31.57a8.17,8.17,0,0,0-2.67,8c1.48,8.45,3.2,16.85,4.69,25.3s2.74,16.94,4.18,25.41c1.26,7.48,2.64,14.94,4,22.41a6.15,6.15,0,0,1-.09,1.47C1189.1,1010.23,1127.52,978.46,1120.7,974Z" transform="translate(-654.21 -790.01)"/><path class="cls-1" d="M770.4,974l-71.48,37.61c-1-3.77.63-7,1.06-10.36.94-7.36,2.34-14.67,3.58-22,1.08-6.34,2.25-12.68,3.3-19,.65-3.91,1.06-7.85,1.76-11.75a117.78,117.78,0,0,1,2.46-11.63c1-3.45.23-5.94-2.37-8.42-6.28-6-12.26-12.25-18.5-18.27-10.65-10.27-21.43-20.41-32.1-30.68a45.88,45.88,0,0,1-3.9-5l79.88-11.59c12-24.25,24-48.31,36.2-72.92,6.75,12,12.08,24.36,18.17,36.35s11.89,24.14,17.94,36.48l80,11.62c-.26.74-.29,1.31-.6,1.6-5.4,5.18-10.85,10.29-16.25,15.47-2.89,2.76-5.63,5.69-8.59,8.38a8.19,8.19,0,0,1-3.81,1.93q-8.76,1.62-17.58,2.88c-8.18,1.15-16.39,2.09-24.57,3.23-3.43.48-6.8,1.37-10.23,1.87-5.39.78-10.81,1.35-16.2,2.09-5.22.72-10.42,1.56-15.72,2.36-.38,2,1.23,2.69,2.19,3.62,8.93,8.72,18,17.33,26.89,26.05,7.74,7.57,15.34,15.29,23.07,22.87,3,2.91,6.1,5.63,9.21,8.39a10.28,10.28,0,0,1,3.38,7.46c.29,3.93,1.24,7.81,1.91,11.72,1,5.52,1.91,11,3,17.19-8.55-3.37-16-8.25-23.82-12.14-8.2-4-16.26-8.38-24.35-12.64C786.41,982.61,778.52,978.37,770.4,974Z" transform="translate(-654.21 -790.01)"/></g></g></svg>