<?xml version="1.0" standalone="no"?>
<!DOCTYPE svg PUBLIC "-//W3C//DTD SVG 20010904//EN"
 "http://www.w3.org/TR/2001/REC-SVG-20010904/DTD/svg10.dtd">
<svg version="1.0" xmlns="http://www.w3.org/2000/svg"
 width="550.000000pt" height="391.000000pt" viewBox="0 0 550.000000 391.000000"
 preserveAspectRatio="xMidYMid meet">

<g transform="translate(0.000000,391.000000) scale(0.100000,-0.100000)"
fill="#63BAAB" stroke="none">
<path d="M2562 3859 c-47 -9 -105 -41 -125 -68 -6 -10 -25 -21 -42 -25 -41
-10 -122 -96 -152 -162 -30 -67 -42 -167 -31 -279 7 -70 6 -90 -7 -108 -38
-54 4 -187 71 -226 43 -25 40 -40 -18 -117 -37 -50 -91 -83 -136 -84 -9 -1
-40 -9 -68 -18 l-51 -18 14 35 c24 56 14 328 -14 399 -50 124 -167 227 -318
278 -102 35 -257 39 -345 10 -127 -42 -177 -94 -279 -291 -119 -227 -168 -271
-401 -360 -49 -19 -106 -43 -127 -54 -66 -33 -139 -97 -160 -139 -10 -22 -47
-65 -80 -96 -103 -96 -112 -144 -94 -531 11 -243 24 -355 60 -545 11 -58 29
-156 40 -218 24 -141 57 -212 117 -255 l43 -30 -61 -69 c-33 -38 -71 -77 -83
-87 -48 -37 -169 -153 -150 -143 49 25 156 111 241 194 l93 90 98 -47 98 -47
-53 -14 c-29 -7 -66 -21 -82 -29 -45 -23 -100 -75 -100 -94 0 -9 -16 -26 -36
-38 l-36 -20 74 -6 c40 -4 111 -16 158 -28 63 -15 121 -21 225 -23 131 -1 144
-3 203 -30 83 -38 156 -117 176 -189 8 -29 17 -88 21 -132 3 -44 13 -102 21
-130 l14 -50 -7 75 c-13 138 -3 170 51 170 28 0 35 5 40 25 17 67 116 130 244
156 l64 13 29 -34 c64 -77 87 -147 104 -323 4 -37 10 -65 14 -62 5 2 11 35 14
72 9 91 48 168 139 269 40 45 81 90 90 102 l16 20 64 -24 c35 -13 81 -33 103
-44 22 -11 48 -20 57 -20 30 0 288 -90 378 -132 126 -58 173 -92 221 -160 24
-33 55 -73 67 -87 l24 -26 -22 32 c-12 18 -19 37 -16 42 3 4 39 10 80 13 51 3
89 12 122 29 44 22 52 32 94 114 l45 90 101 32 c56 18 131 35 167 39 l65 7
-20 -77 c-24 -92 -20 -109 26 -105 43 4 62 -12 71 -59 6 -38 74 -186 82 -179
2 3 -8 40 -22 83 -38 121 -37 123 53 63 42 -29 100 -70 129 -91 29 -21 56 -38
61 -38 4 0 30 30 58 67 71 97 228 254 304 302 148 96 264 92 370 -12 49 -49
65 -80 85 -177 8 -39 24 -88 35 -110 11 -21 20 -54 21 -72 l1 -33 10 27 c7 21
6 40 -6 75 -9 27 -22 83 -31 127 -8 43 -25 98 -39 122 -19 33 -21 44 -10 44 8
0 14 9 14 19 0 10 9 29 19 42 28 35 100 31 188 -10 48 -22 61 -25 43 -11 -14
11 -47 28 -74 38 -37 14 -44 20 -31 26 36 13 250 -138 260 -183 3 -15 -3 -65
-15 -111 -17 -73 -28 -212 -16 -199 2 2 18 65 35 139 17 74 38 164 46 200 9
36 16 96 16 133 1 38 7 84 15 103 17 40 18 111 3 187 l-12 56 46 51 c25 28 51
67 58 88 7 20 25 53 40 72 41 52 51 105 40 202 -6 46 -15 196 -21 333 -22 516
-80 791 -182 868 -18 14 -78 41 -133 60 -55 19 -117 43 -137 52 l-37 18 20 38
c21 42 25 108 8 142 -6 12 -40 65 -75 117 l-64 95 -20 135 c-22 153 -45 224
-95 292 -66 91 -142 121 -240 98 -49 -12 -58 -11 -104 9 -69 29 -211 30 -307
0 -59 -18 -77 -30 -129 -82 -80 -82 -115 -153 -115 -232 0 -33 -5 -104 -12
-157 -9 -73 -9 -117 -1 -180 15 -105 56 -239 95 -302 16 -26 28 -49 26 -51 -2
-2 -46 -23 -99 -48 -119 -55 -179 -108 -220 -194 -31 -65 -43 -130 -95 -533
-10 -74 -20 -127 -22 -117 -2 10 1 47 7 81 18 105 14 170 -20 269 -40 120
-221 475 -271 532 -38 43 -98 77 -260 149 -80 34 -89 58 -50 122 43 70 79 187
93 306 12 98 14 104 46 131 47 40 57 88 44 206 -8 77 -17 110 -47 170 -73 147
-222 258 -380 281 -38 5 -71 9 -74 9 -3 -1 -24 -5 -48 -10z m181 -43 c129 -46
245 -145 293 -250 52 -115 68 -293 29 -336 -18 -19 -41 -28 -31 -12 3 5 -33 6
-79 4 -101 -5 -197 14 -310 63 -44 19 -80 35 -81 35 -1 0 -4 -14 -8 -31 -3
-18 -29 -54 -61 -89 -33 -34 -60 -73 -66 -94 -16 -57 -45 -46 -74 30 l-15 39
6 -40 c8 -58 30 -87 62 -83 21 2 30 12 42 44 8 23 37 65 63 93 27 28 53 64 58
79 l10 28 67 -33 c108 -53 243 -75 336 -53 l39 9 -6 -77 c-8 -98 -46 -231 -96
-330 -43 -86 -121 -196 -148 -211 -69 -36 -180 -14 -242 48 -61 61 -121 146
-148 208 -13 32 -22 45 -18 28 10 -49 51 -125 107 -200 66 -87 132 -125 216
-125 l55 0 -6 -32 -6 -33 19 36 c10 20 30 43 43 52 l24 16 6 -82 c4 -72 2 -86
-17 -115 -31 -48 -106 -82 -181 -82 -83 0 -122 14 -130 48 -15 68 -37 134 -41
129 -4 -4 2 -40 21 -124 4 -18 2 -21 -12 -16 -23 8 -63 44 -63 56 0 5 -22 65
-50 132 -60 151 -66 184 -47 255 9 30 17 85 19 122 4 61 2 67 -17 70 -25 4
-80 85 -89 132 -8 39 8 82 35 99 23 15 69 0 79 -26 7 -17 9 -18 9 -4 1 26 -36
57 -69 57 l-30 0 0 119 c0 134 19 213 69 292 28 45 87 99 108 99 5 0 18 10 29
21 55 62 179 76 297 35z m1662 -340 c44 -19 101 -69 148 -131 16 -22 27 -31
23 -20 -14 44 34 -31 54 -83 44 -117 47 -271 6 -365 l-14 -32 -1 28 c-1 15 -8
43 -15 62 -15 34 -27 40 -71 35 -17 -2 -18 0 -5 17 14 16 13 17 -2 5 -9 -8
-15 -19 -12 -26 7 -18 -57 -74 -91 -79 -30 -4 -30 -4 4 -6 28 -1 41 6 72 39
40 42 60 49 76 28 47 -60 0 -207 -70 -221 -12 -2 -8 -3 8 -2 17 1 38 5 47 9
13 6 21 -1 37 -31 21 -43 97 -117 137 -135 25 -12 26 -15 21 -65 -9 -88 -76
-210 -171 -311 -17 -19 -24 -30 -14 -27 15 6 15 3 4 -37 -8 -24 -17 -78 -21
-120 l-7 -78 -56 0 c-32 0 -74 5 -94 10 -33 9 -38 15 -43 48 -11 60 -24 96
-66 177 -28 55 -39 88 -39 121 0 24 4 44 9 44 5 0 23 -17 40 -37 17 -21 31
-33 31 -28 0 15 -34 63 -56 80 -19 15 -19 15 0 26 71 42 155 166 170 249 6 32
4 30 -14 -12 -58 -138 -153 -225 -265 -243 -50 -8 -85 16 -116 78 -12 23 -39
65 -60 93 -45 59 -61 94 -102 229 -24 79 -30 119 -31 190 0 113 7 244 14 240
3 -2 4 14 2 34 -9 94 121 227 255 261 59 14 231 6 278 -14z m221 -5 c87 -40
161 -182 169 -326 5 -104 37 -191 100 -280 74 -103 85 -126 85 -180 0 -52 -14
-85 -36 -85 -8 0 -56 25 -107 56 -50 31 -112 62 -137 68 -40 11 -47 17 -59 53
-14 39 -14 45 9 92 12 28 27 48 32 45 4 -3 8 3 8 13 0 10 14 -9 30 -42 16 -33
43 -76 60 -95 l31 -35 -25 35 c-13 19 -39 64 -57 100 -30 60 -34 75 -39 190
-7 148 -24 194 -100 277 -27 30 -50 59 -50 64 0 5 12 9 28 10 26 1 26 1 -5 9
-38 9 -65 28 -57 41 9 15 77 10 120 -10z m-2982 -27 c127 -31 260 -124 319
-224 29 -51 58 -149 56 -195 -1 -16 -3 -22 -6 -13 -3 13 -19 2 -66 -45 -142
-141 -351 -183 -562 -113 -11 3 2 -5 30 -18 27 -14 83 -31 124 -37 56 -9 70
-15 55 -21 -41 -17 74 5 132 26 90 33 152 72 216 137 l56 58 7 -72 c7 -68 5
-77 -30 -162 -35 -85 -37 -94 -31 -163 5 -51 3 -78 -5 -88 -8 -10 -8 -14 -1
-14 23 0 34 42 28 100 -4 36 -2 67 5 83 13 30 96 73 158 82 40 7 43 6 37 -11
-18 -46 -27 -120 -22 -162 7 -45 74 -292 82 -301 9 -10 33 26 62 92 38 83 33
88 -8 8 -16 -33 -33 -62 -38 -65 -5 -3 -24 58 -42 134 -25 106 -31 153 -27
194 6 63 41 136 92 191 32 35 36 37 30 15 -3 -14 -8 -52 -11 -85 -6 -64 6
-114 65 -275 38 -106 39 -149 4 -344 -26 -140 -27 -168 -25 -381 2 -262 -7
-356 -53 -541 -19 -73 -39 -186 -46 -253 l-13 -122 -20 21 c-17 17 -22 38 -27
114 -4 67 -12 106 -28 140 -22 44 -22 48 -7 80 23 49 20 83 -13 153 -20 41
-33 90 -40 150 -6 48 -20 136 -30 193 -17 91 -18 122 -10 220 12 134 0 259
-30 323 -21 42 -21 42 -13 7 4 -19 6 -172 5 -340 -1 -168 0 -300 2 -295 2 6 6
32 10 58 4 27 8 47 10 45 2 -2 11 -68 20 -148 14 -123 22 -156 51 -219 19 -40
34 -86 34 -103 0 -36 -17 -71 -31 -62 -6 3 0 -14 12 -37 18 -36 55 -236 46
-246 -2 -1 -22 10 -45 26 -23 15 -39 31 -35 34 12 13 -77 7 -110 -7 -40 -17
-69 -49 -94 -101 -24 -53 -76 -79 -158 -78 -33 0 -73 5 -90 12 l-30 12 30 21
c17 12 66 58 111 102 83 84 135 169 149 249 7 36 8 37 54 39 l46 1 -45 6 c-41
5 -45 8 -43 31 2 14 12 142 23 285 12 143 32 339 46 435 36 241 23 332 -56
422 l-38 44 19 23 c27 33 17 38 -14 7 -15 -14 -34 -26 -44 -26 -16 -1 -16 -2
2 -12 38 -20 67 -53 93 -103 25 -46 27 -59 26 -160 -1 -69 -11 -168 -28 -265
-15 -92 -32 -250 -41 -387 -26 -399 -61 -495 -234 -634 -77 -62 -85 -66 -115
-58 -35 10 -201 92 -231 115 -19 14 -19 16 20 49 22 19 85 67 140 107 91 65
105 72 155 76 41 2 65 -2 94 -17 l38 -20 -18 21 c-11 11 -33 27 -51 34 -35 15
-99 19 -105 6 -1 -4 -25 -20 -51 -36 -57 -33 -60 -42 36 119 68 113 83 150
103 253 16 86 19 213 4 228 -6 6 -19 56 -30 113 -20 103 -27 306 -14 403 l6
46 62 -5 c69 -4 80 1 115 62 l24 40 -42 -44 c-40 -42 -42 -43 -88 -36 -67 10
-148 45 -235 100 -66 43 -70 44 -43 16 25 -27 27 -33 15 -41 -8 -5 -18 -10
-21 -10 -14 0 -87 -84 -109 -123 -22 -40 -20 -39 36 22 l59 64 -3 -114 c-3
-98 -6 -116 -23 -131 -43 -36 -190 -46 -266 -17 -19 7 -23 16 -24 56 -1 38 -3
43 -9 23 -7 -24 -7 -23 -12 10 -3 20 -5 2 -6 -42 -2 -91 -41 -286 -72 -354
-25 -59 -64 -110 -93 -125 -21 -11 -21 -11 -6 7 32 38 31 48 -2 17 -19 -18
-51 -39 -71 -47 -41 -18 -155 -21 -178 -6 -12 8 -11 10 6 10 51 0 170 109 251
230 41 61 79 161 93 242 8 43 24 88 46 125 19 31 66 118 105 192 38 75 77 145
85 156 14 18 16 19 25 3 13 -24 72 -58 101 -58 13 0 33 7 44 16 18 15 18 15
-3 5 -28 -14 -67 0 -106 37 -32 30 -67 92 -67 118 0 15 2 16 18 2 26 -24 91
-54 154 -72 75 -21 105 -20 46 3 -25 10 -59 27 -75 38 -15 11 -39 26 -53 33
-19 9 -17 5 10 -19 l35 -32 -43 21 c-23 11 -73 46 -109 77 -53 45 -63 50 -45
25 13 -17 27 -34 32 -37 6 -4 10 -21 10 -40 0 -19 5 -45 12 -59 10 -23 6 -33
-35 -95 -25 -37 -62 -102 -83 -142 -45 -91 -98 -175 -133 -213 -45 -49 -137
-103 -245 -142 -58 -21 -115 -46 -128 -55 -22 -17 -22 -18 -2 -13 19 5 22 0
27 -57 9 -78 9 -202 1 -223 -7 -18 -36 -21 -66 -5 -11 6 -22 8 -26 5 -8 -9 39
-56 65 -67 15 -5 24 -20 28 -46 44 -255 82 -329 198 -390 39 -21 115 -70 171
-111 212 -156 454 -285 613 -328 l62 -17 -26 -31 c-14 -17 -36 -53 -49 -79
l-22 -49 -177 2 -177 1 -122 66 c-66 37 -140 84 -162 104 -56 50 -95 69 -157
76 -29 3 -62 12 -74 19 -13 8 -64 32 -114 54 -118 52 -173 91 -203 143 -38 65
-124 578 -138 827 -17 291 -15 478 3 520 23 50 64 96 121 135 46 30 52 32 91
22 32 -8 60 -30 130 -101 l88 -91 -31 -100 c-18 -55 -35 -111 -39 -124 -6 -22
-11 -17 -49 47 -23 39 -47 74 -52 77 -5 3 6 -20 24 -52 48 -81 61 -134 42
-172 -9 -16 -28 -39 -42 -50 -32 -25 -14 -28 22 -4 29 19 67 88 84 153 6 25
22 82 36 128 22 73 27 82 49 82 13 0 26 -3 29 -8 5 -8 -42 -161 -63 -202 -12
-24 -12 -24 4 -5 23 27 52 96 61 141 4 20 15 45 24 54 17 17 16 18 -22 29 -28
9 -69 41 -138 107 -105 100 -128 114 -192 114 -36 0 -39 2 -27 16 19 23 96 13
189 -26 100 -42 181 -60 260 -58 l65 1 -71 7 c-99 11 -135 20 -128 32 5 7 -2
9 -20 4 -17 -4 -26 -2 -26 5 0 7 -2 10 -5 7 -3 -3 -43 7 -88 23 -45 16 -100
29 -121 29 -38 0 -39 0 -21 20 44 49 271 160 296 145 5 -4 9 -2 9 3 0 5 6 9
14 9 22 0 123 63 177 111 58 52 112 132 179 267 65 130 120 193 199 229 101
45 214 52 345 20z m2996 -711 c0 -2 -9 -3 -19 -3 -25 0 -33 24 -20 58 l11 27
14 -40 c7 -22 14 -41 14 -42z m135 -67 c28 -18 69 -45 92 -59 68 -43 74 -59
83 -216 5 -76 11 -159 15 -185 8 -54 11 -53 -90 -31 -39 8 -99 14 -135 14
l-65 -2 70 -8 c39 -4 102 -15 141 -25 106 -26 104 -29 98 128 -3 73 -10 164
-15 202 -5 38 -8 71 -5 73 2 2 26 -7 53 -20 26 -13 92 -41 145 -61 66 -25 105
-47 122 -66 66 -79 119 -363 146 -785 6 -93 18 -245 26 -336 l16 -167 -23 -42
c-13 -23 -25 -36 -27 -30 -2 6 -14 -11 -27 -37 -34 -73 -71 -110 -240 -238
-84 -63 -175 -133 -201 -155 -48 -40 -50 -40 -132 -40 -46 0 -125 -5 -175 -11
-83 -10 -98 -10 -157 9 -59 18 -131 31 -263 47 -43 6 -47 8 -35 22 12 15 11
15 -10 4 -36 -19 -35 -9 6 36 47 51 89 67 237 89 139 20 140 19 150 -75 3 -31
10 -72 15 -91 7 -32 8 -29 9 25 1 77 -14 129 -43 153 l-24 18 92 39 c50 21
146 73 213 117 67 43 142 88 165 99 24 11 35 17 26 15 -32 -9 -19 17 31 65 34
33 42 45 27 41 l-21 -5 20 21 c14 14 41 23 93 29 82 11 119 2 180 -42 l37 -26
-39 35 c-22 20 -55 40 -75 46 -46 13 -132 13 -165 0 -32 -12 -32 -15 -9 148
15 114 15 127 0 200 -33 150 -18 226 50 273 52 36 57 49 7 20 -19 -12 -36 -21
-38 -21 -2 0 19 64 46 143 57 169 63 224 9 82 -65 -171 -71 -182 -82 -165 -8
11 -9 10 -4 -8 4 -14 -1 -39 -15 -66 -23 -48 -120 -146 -144 -146 -23 0 -119
39 -135 55 -8 7 -17 31 -21 52 l-8 38 -1 -37 c-2 -56 7 -68 73 -99 86 -41 107
-39 169 20 l52 49 1 -76 c0 -43 4 -106 9 -141 5 -40 3 -122 -5 -223 -13 -150
-15 -162 -41 -195 -16 -19 -31 -43 -34 -54 -4 -11 -32 -32 -63 -48 -31 -16
-106 -59 -166 -95 -118 -72 -139 -79 -131 -43 12 54 25 240 25 362 0 161 -13
297 -45 470 -32 179 -36 230 -25 319 10 83 46 165 106 248 20 27 45 76 55 109
21 66 26 195 9 184 -17 -11 -130 84 -130 109 0 18 97 -7 145 -38z m-1855 -38
c23 -43 25 -80 8 -175 -13 -79 -6 -132 23 -165 l20 -23 -16 32 c-19 41 -19 86
1 175 10 42 14 86 10 110 -6 38 -5 39 16 32 61 -18 167 -81 215 -127 46 -44
68 -79 163 -271 149 -298 164 -362 136 -548 -9 -58 -10 -105 -5 -140 6 -37 4
-79 -6 -139 -19 -110 -26 -129 -81 -206 -58 -81 -69 -117 -49 -156 8 -17 14
-32 12 -34 -2 -1 -27 -7 -55 -13 -58 -11 -106 -32 -139 -63 -37 -33 -29 2 22
99 31 58 45 96 44 122 l0 37 -13 -40 c-15 -47 -35 -86 -36 -68 0 7 -23 38 -51
69 -57 63 -57 53 -9 189 17 50 36 120 42 157 14 79 28 79 29 0 1 -57 1 -57 11
-20 8 30 5 62 -13 150 -29 146 -29 199 2 268 21 49 24 68 23 175 -1 66 -6 152
-12 190 -8 61 -9 46 -8 -110 1 -176 0 -181 -26 -242 -32 -71 -36 -138 -14
-221 13 -47 12 -62 -4 -143 -10 -49 -31 -127 -47 -172 l-27 -82 -12 95 c-14
113 -4 307 27 511 18 119 36 293 23 229 -3 -14 -16 -79 -29 -145 -51 -247 -67
-473 -45 -611 8 -46 6 -82 -5 -145 -25 -146 -26 -157 -5 -92 l20 62 49 -52
c73 -78 74 -82 40 -142 -22 -39 -29 -65 -29 -103 0 -65 -14 -67 -65 -11 -49
55 -65 95 -81 214 -8 56 -30 163 -49 239 -47 188 -51 236 -30 412 20 171 17
278 -14 484 -12 74 -27 196 -35 270 l-14 134 26 34 c27 36 27 36 62 -30z
m1113 -220 c55 -83 57 -101 26 -224 -29 -115 -23 -119 119 -80 38 11 61 12 80
6 25 -10 26 -9 8 5 -24 18 -40 19 -122 3 -35 -6 -66 -10 -68 -7 -3 2 2 31 10
64 7 33 14 81 14 106 0 46 1 46 38 53 20 3 49 6 64 6 26 0 27 -2 25 -52 -2
-45 5 -67 41 -138 54 -107 67 -184 52 -297 -13 -96 -211 -710 -263 -812 l-32
-64 -110 -39 c-60 -21 -111 -38 -112 -38 -7 0 -2 58 6 85 12 38 53 135 66 155
7 12 10 10 16 -10 4 -16 8 6 12 60 16 206 14 340 -3 188 -6 -55 -7 -59 -14
-33 -4 17 -30 102 -57 189 -27 88 -47 161 -45 164 3 2 20 -2 40 -9 28 -10 51
-10 118 0 131 20 137 21 153 44 22 32 18 44 -5 15 -16 -21 -31 -26 -97 -33
-126 -14 -154 -11 -215 20 -90 44 -91 47 -63 136 19 61 22 83 14 119 -5 25
-13 68 -18 95 l-9 50 0 -60 c0 -33 3 -85 7 -115 6 -45 3 -64 -16 -108 -25 -59
-21 -78 21 -106 16 -10 29 -32 36 -58 6 -24 35 -117 65 -208 62 -191 74 -260
52 -310 l-15 -35 -11 28 c-32 82 -101 148 -166 161 -27 6 -28 5 -6 -4 47 -20
80 -52 120 -111 43 -64 53 -118 30 -161 -10 -19 -12 -19 -30 11 -10 17 -50 62
-88 100 -97 98 -152 106 -231 35 -41 -37 -68 -103 -53 -127 7 -11 22 -137 16
-137 -9 0 -63 124 -63 143 0 32 88 153 123 168 15 6 26 14 23 16 -2 3 -14 0
-25 -7 -12 -6 -21 -8 -21 -4 0 14 42 64 50 59 5 -3 26 5 46 17 21 12 59 25 84
29 l45 6 -43 2 c-26 0 -59 -7 -82 -19 -22 -11 -40 -17 -40 -14 0 4 -10 -1 -22
-12 -21 -19 -21 -19 -15 6 28 106 91 450 112 613 34 261 66 358 139 426 25 23
209 119 232 120 6 1 32 -31 57 -71z m-2480 -38 c37 -19 65 -40 63 -47 -3 -6
-10 -48 -17 -94 -18 -122 -6 -270 32 -414 26 -101 30 -132 26 -195 -7 -95 -43
-200 -100 -293 -25 -39 -59 -100 -75 -133 -30 -60 -84 -124 -103 -124 -6 0
-32 -21 -59 -46 -39 -37 -55 -45 -73 -40 -25 6 -322 199 -332 215 -3 5 2 85
10 178 8 92 15 200 15 240 0 70 1 73 42 120 56 64 76 115 83 204 3 41 8 93 11
115 l5 42 46 -14 c71 -22 188 -18 239 7 50 24 57 39 59 139 4 161 4 156 28
168 26 13 18 15 100 -28z m1291 -95 c37 -272 40 -334 22 -487 -25 -222 -22
-295 18 -435 19 -65 41 -167 50 -228 9 -60 21 -122 26 -137 l9 -28 -157 -2
-157 -2 120 -6 c66 -4 136 -8 155 -9 30 -1 44 -10 88 -60 l52 -59 -94 5 c-102
6 -229 -11 -396 -53 -52 -13 -108 -24 -125 -24 -35 0 -204 85 -212 107 -6 15
21 237 33 267 4 11 11 13 31 5 13 -5 50 -8 81 -8 l57 2 -60 7 c-33 3 -70 12
-81 18 l-21 11 24 83 c46 159 54 235 52 498 -2 218 1 265 24 423 14 99 28 181
30 184 3 2 22 -4 44 -15 126 -63 270 -50 341 33 15 17 28 31 29 31 1 -1 9 -55
17 -121z m-1874 -167 c-34 -113 -76 -189 -154 -279 -95 -110 -133 -140 -187
-145 -44 -4 -44 -4 -13 8 17 7 42 21 55 31 22 16 23 17 2 7 -23 -11 -23 -10
-23 77 0 48 -5 117 -10 153 -5 35 -8 66 -6 67 2 2 36 13 76 24 87 24 203 77
245 112 17 14 31 24 33 22 2 -2 -6 -36 -18 -77z m3515 -203 c69 -2 70 -3 73
-31 2 -16 14 -88 27 -160 44 -240 55 -568 28 -801 l-6 -52 -81 -30 c-45 -16
-108 -32 -141 -36 -118 -13 -160 -31 -206 -85 -42 -50 -74 -62 -108 -41 -11 7
-8 16 14 45 22 28 24 36 11 36 -21 0 -20 14 1 31 15 13 13 15 -13 20 -16 4
-48 7 -71 8 l-41 1 84 167 c73 145 99 211 185 477 57 176 105 343 112 388 11
78 12 79 37 72 14 -4 57 -8 95 -9z m-3439 -38 c-3 -18 -13 -42 -20 -53 -12
-15 -11 -7 2 38 18 61 28 70 18 15z m-145 -372 c-6 -79 -11 -170 -11 -203 0
-34 -5 -64 -10 -67 -6 -3 -36 6 -67 22 -47 24 -60 36 -84 83 -38 72 -65 160
-74 239 l-7 63 58 -6 c60 -7 167 13 189 35 17 17 18 -15 6 -166z m2731 -293
c15 -10 54 -48 87 -85 62 -71 81 -121 65 -169 -7 -21 -9 -20 -21 17 l-13 40 6
-49 c3 -27 8 -54 10 -60 4 -11 -34 -36 -55 -36 -5 0 -16 21 -26 48 -27 72 -37
73 -15 2 11 -35 18 -65 17 -65 -48 -29 -105 -55 -121 -55 -25 0 -65 39 -92 90
-16 29 -19 56 -18 150 0 73 5 124 13 138 26 48 114 66 163 34z m-200 -114 c-8
-8 -9 -4 -5 13 4 13 8 18 11 10 2 -7 -1 -18 -6 -23z m-1311 -187 c94 -70 120
-86 239 -139 l65 -30 -29 -11 c-23 -9 -38 -8 -82 9 -100 37 -340 100 -382 100
-50 0 -52 10 -17 63 21 31 82 75 107 77 3 0 48 -31 99 -69z m1308 12 c49 -74
49 -83 -2 -165 -52 -84 -58 -91 -112 -136 -26 -22 -17 -18 26 12 66 45 86 55
74 36 -3 -5 27 6 67 25 98 47 237 81 385 94 166 15 214 15 207 -2 -4 -10 -34
-14 -122 -14 -110 -1 -267 -25 -347 -53 l-30 -10 35 5 c19 3 73 12 120 21 83
15 325 22 337 11 3 -4 -2 -18 -11 -32 -15 -23 -21 -24 -59 -18 -56 10 -335 8
-369 -3 -18 -6 38 -9 155 -9 141 0 199 -4 260 -18 42 -10 77 -22 77 -26 0 -4
-12 -13 -26 -20 -21 -9 -50 -7 -157 15 -173 34 -341 44 -426 27 -36 -8 -67
-16 -70 -19 -3 -3 12 -2 34 3 99 20 348 -3 594 -56 l36 -7 -49 -22 c-79 -35
-91 -36 -160 -9 -123 50 -223 71 -336 70 -58 0 -123 -4 -145 -10 -31 -8 -15
-9 70 -5 133 6 234 -12 374 -66 l96 -36 -45 -9 c-25 -4 -117 -9 -205 -11 -161
-3 -259 -20 -357 -60 -34 -15 -35 -14 -31 7 3 16 -3 25 -23 35 -39 17 -54 15
-109 -12 l-48 -25 34 36 c33 35 32 35 -21 -7 -65 -51 -107 -70 -153 -70 -29 0
-38 7 -75 60 -22 33 -37 60 -32 60 18 0 42 48 35 70 -9 29 -36 40 -77 31 -23
-5 -53 -4 -79 3 -37 10 -43 9 -53 -7 -31 -52 -28 -51 -87 -32 -30 10 -58 21
-62 25 -30 27 321 51 451 31 64 -10 93 -18 167 -46 19 -7 19 -7 0 8 -12 8 -43
22 -70 30 -133 41 -204 51 -390 56 l-190 6 80 31 c102 40 173 55 272 56 115 0
197 -26 274 -88 l34 -28 -30 33 c-16 17 -59 46 -95 64 -63 31 -68 32 -200 32
-127 -1 -140 -3 -220 -33 -46 -18 -110 -48 -143 -67 -61 -36 -73 -39 -125 -29
-26 5 -30 9 -22 24 5 9 7 20 3 23 -3 3 5 9 18 12 13 3 80 18 149 34 284 67
469 80 574 40 64 -23 119 -80 134 -137 6 -22 10 -28 11 -16 2 38 -50 124 -90
151 -43 29 -44 18 7 99 27 41 123 82 196 83 32 1 39 -4 67 -46z m561 22 c0
-15 -65 -117 -79 -124 -9 -5 -47 -12 -86 -16 -103 -10 -246 -49 -328 -89 -40
-19 -73 -33 -75 -31 -11 10 268 150 430 215 124 50 138 54 138 45z m-3154
-124 c43 -20 173 -137 139 -126 -77 25 -164 38 -262 39 -103 1 -110 2 -85 15
15 8 41 18 57 22 l30 7 -30 1 c-16 0 -55 -13 -85 -28 l-55 -29 145 -4 c136 -5
153 -8 279 -47 201 -63 280 -108 326 -185 27 -44 34 -43 11 3 -8 15 -35 46
-60 69 l-46 42 171 0 c111 0 168 -3 164 -10 -3 -5 -13 -10 -21 -10 -32 0 -114
-51 -153 -96 -36 -41 -49 -64 -37 -64 2 0 15 17 28 38 32 47 120 96 206 113
74 14 198 7 259 -14 24 -8 40 -11 38 -7 -9 15 -98 39 -180 51 -44 6 -81 12
-83 14 -2 2 6 26 18 53 30 69 58 93 117 99 26 2 85 14 129 25 l82 20 183 -46
c223 -57 235 -61 219 -81 -7 -8 -22 -15 -34 -16 -11 -1 15 -10 59 -21 73 -17
82 -18 107 -3 18 10 51 15 110 14 l83 0 -75 -20 c-82 -21 -226 -86 -277 -125
l-31 -24 -38 53 c-52 72 -61 80 -30 25 l27 -46 -43 13 c-65 20 -122 41 -159
60 l-34 16 23 -20 c12 -10 22 -23 22 -27 0 -5 -38 -47 -85 -94 -46 -47 -98
-110 -114 -140 -29 -51 -31 -53 -31 -25 0 37 -40 125 -80 175 -27 34 -28 39
-13 43 42 11 -58 5 -127 -7 -124 -22 -234 -90 -255 -156 -5 -15 -15 -20 -44
-20 -36 0 -39 2 -51 43 -43 145 -143 222 -323 248 -44 6 -94 7 -127 2 -41 -7
-73 -4 -130 9 -41 10 -105 20 -142 24 -38 4 -68 9 -68 12 0 11 54 54 93 74 23
12 67 29 97 39 30 10 46 18 35 18 -36 1 -90 -18 -148 -53 -62 -38 -77 -32 -24
8 39 30 101 53 172 65 79 13 107 12 151 -8z m4450 -100 c9 -96 -5 -118 -112
-175 l-86 -46 -30 21 c-16 12 -50 29 -75 39 -24 9 -44 20 -44 24 0 4 58 48
128 98 70 50 144 104 163 119 34 28 35 29 42 8 5 -11 11 -51 14 -88z m-1746
60 c0 -3 -12 -13 -28 -22 -15 -9 -45 -27 -66 -40 -43 -25 -42 -21 11 53 34 47
35 47 59 32 13 -9 24 -19 24 -23z m-2349 -169 c-19 -6 -166 67 -181 90 -12 18
5 11 88 -32 56 -30 98 -56 93 -58z m3199 -23 c95 -18 152 -39 107 -39 -28 0
-124 -47 -200 -97 -40 -26 -124 -100 -188 -164 l-116 -116 -64 39 c-35 21
-110 64 -167 94 l-103 56 24 31 c45 58 86 71 227 72 118 0 129 -2 178 -27 29
-15 50 -23 47 -18 -10 16 -123 90 -136 90 -27 0 8 20 86 48 79 29 80 29 45 37
-31 7 -32 9 -15 16 27 12 148 2 275 -22z m-1555 -4 c57 0 60 -1 60 -24 0 -23
-9 -32 -50 -47 -19 -7 -19 -8 3 -11 12 -3 38 -25 57 -50 36 -47 40 -69 8 -41
-10 8 -25 18 -33 22 -8 4 -1 -4 15 -18 68 -59 159 -57 276 4 88 46 140 37 62
-11 -21 -13 -56 -38 -78 -56 -22 -19 -60 -40 -85 -48 -32 -10 -38 -14 -20 -14
30 -1 98 29 143 62 17 14 48 33 67 42 l34 18 -17 -24 c-9 -13 -28 -44 -41 -69
-40 -74 -49 -82 -122 -101 -63 -17 -53 -18 41 -4 l30 5 -31 -15 c-18 -8 -71
-20 -119 -27 l-87 -12 -55 62 c-87 98 -208 161 -453 235 l-114 35 34 21 c19
11 63 33 97 47 l63 27 65 -22 c36 -11 72 -21 81 -21 12 0 13 -4 3 -22 -6 -13
7 -1 31 25 32 36 47 46 59 40 9 -4 43 -8 76 -8z m2000 -35 c-4 -7 9 -9 37 -5
l43 5 -44 -15 c-25 -8 -50 -20 -55 -26 -8 -7 -6 -8 7 -3 15 5 15 2 -5 -29 -26
-41 -47 -46 -72 -18 -10 11 -41 29 -69 41 -42 18 -64 22 -127 18 -63 -4 -87
-11 -145 -41 -119 -63 -261 -198 -380 -359 l-20 -27 -80 55 c-44 31 -122 81
-173 111 -62 38 -90 59 -83 66 10 10 187 -85 286 -153 l39 -27 131 132 c244
249 383 306 564 232 35 -14 59 -21 54 -16 -6 6 -36 21 -69 34 l-58 24 49 4
c110 8 176 7 170 -3z m432 -73 c-11 -127 -11 -128 -92 -53 l-70 64 50 21 c28
12 59 25 70 30 45 21 48 16 42 -62z m-310 57 c-3 -3 -12 -4 -19 -1 -8 3 -5 6
6 6 11 1 17 -2 13 -5z m-1247 -81 c-1 -8 -67 -83 -74 -83 -5 0 10 65 18 79 8
12 56 15 56 4z m-60 -123 c-14 -26 -30 -34 -30 -16 0 27 12 45 26 39 10 -4 11
-10 4 -23z"/>
<path d="M4003 3308 c-32 -34 -53 -76 -53 -106 1 -9 7 0 15 22 7 21 27 56 45
77 38 47 35 50 -7 7z"/>
<path d="M3959 3313 c-13 -16 -12 -17 4 -4 16 13 21 21 13 21 -2 0 -10 -8 -17
-17z"/>
<path d="M4116 3255 c-67 -62 -66 -74 0 -19 36 28 75 76 62 74 -2 -1 -30 -25
-62 -55z"/>
<path d="M4026 3260 c-32 -36 -42 -50 -33 -50 2 0 23 20 47 45 24 25 39 45 33
45 -6 0 -27 -18 -47 -40z"/>
<path d="M4180 3261 c-19 -20 -51 -50 -70 -65 l-35 -27 32 15 c33 16 113 93
113 108 0 12 -1 10 -40 -31z"/>
<path d="M3930 3264 c-6 -15 -7 -32 -1 -41 6 -12 10 -5 13 25 4 49 1 52 -12
16z"/>
<path d="M3881 3234 c0 -11 3 -14 6 -6 3 7 2 16 -1 19 -3 4 -6 -2 -5 -13z"/>
<path d="M4466 3225 c-19 -28 -89 -71 -149 -91 l-42 -14 40 6 c65 10 140 57
166 107 14 26 4 21 -15 -8z"/>
<path d="M4261 3218 c-18 -12 -61 -32 -95 -45 -41 -16 -49 -21 -26 -17 50 9
126 43 146 65 22 24 17 24 -25 -3z"/>
<path d="M4029 3203 l-24 -28 28 24 c25 23 32 31 24 31 -2 0 -14 -12 -28 -27z"/>
<path d="M4309 3193 c-13 -16 -12 -17 4 -4 9 7 17 15 17 17 0 8 -8 3 -21 -13z"/>
<path d="M4270 3170 c-9 -6 -10 -10 -3 -10 6 0 15 5 18 10 8 12 4 12 -15 0z"/>
<path d="M4471 3163 c-2 -23 -66 -86 -106 -104 -22 -10 -33 -19 -24 -19 35 0
76 12 99 31 19 14 20 18 6 12 -17 -5 -15 -1 8 30 15 20 26 42 23 49 -4 10 -6
10 -6 1z"/>
<path d="M4395 3119 c-16 -10 -25 -19 -19 -19 7 0 22 9 35 20 30 24 23 24 -16
-1z"/>
<path d="M4470 3051 c-35 -26 -85 -41 -139 -42 l-46 -1 42 -11 c51 -12 116 9
153 48 28 29 24 31 -10 6z"/>
<path d="M4524 3049 c-28 -31 -72 -60 -113 -76 l-36 -14 35 6 c40 6 106 49
128 83 18 28 11 29 -14 1z"/>
<path d="M4451 2674 c0 -11 3 -14 6 -6 3 7 2 16 -1 19 -3 4 -6 -2 -5 -13z"/>
<path d="M4429 2187 c14 -29 27 -47 29 -40 4 14 -22 65 -41 81 -7 6 -2 -12 12
-41z"/>
<path d="M4580 3380 c8 -5 20 -10 25 -10 6 0 3 5 -5 10 -8 5 -19 10 -25 10 -5
0 -3 -5 5 -10z"/>
<path d="M1298 2815 c21 -40 113 -115 142 -115 8 0 -1 9 -20 21 -19 11 -57 42
-84 67 -26 26 -44 38 -38 27z"/>
<path d="M1388 2785 c36 -30 103 -60 152 -69 23 -4 14 2 -28 18 -34 13 -80 35
-102 50 -50 33 -60 33 -22 1z"/>
<path d="M1330 2747 c14 -16 34 -33 45 -39 21 -11 20 -10 -35 37 l-35 30 25
-28z"/>
<path d="M1608 2753 c7 -3 16 -2 19 1 4 3 -2 6 -13 5 -11 0 -14 -3 -6 -6z"/>
<path d="M1528 2743 c7 -3 16 -2 19 1 4 3 -2 6 -13 5 -11 0 -14 -3 -6 -6z"/>
<path d="M1464 2716 c11 -9 24 -16 30 -16 12 0 7 5 -24 19 -24 11 -24 11 -6
-3z"/>
<path d="M1050 2695 c-23 -28 -123 -57 -230 -65 l-105 -8 115 1 c103 2 121 5
171 30 55 26 93 57 71 57 -5 0 -15 -7 -22 -15z"/>
<path d="M773 2563 c20 -2 54 -2 75 0 20 2 3 4 -38 4 -41 0 -58 -2 -37 -4z"/>
<path d="M1046 2499 c-27 -45 -89 -86 -144 -93 -52 -7 -136 11 -205 44 -31 15
-37 16 -22 4 37 -30 125 -65 178 -71 41 -4 64 -1 99 15 l46 20 -18 -52 c-23
-69 -46 -112 -83 -161 l-31 -40 32 30 c43 39 75 96 100 176 11 36 32 83 46
104 23 33 32 55 23 55 -1 0 -11 -14 -21 -31z"/>
<path d="M1071 2274 c0 -11 3 -14 6 -6 3 7 2 16 -1 19 -3 4 -6 -2 -5 -13z"/>
<path d="M1091 2234 c0 -11 3 -14 6 -6 3 7 2 16 -1 19 -3 4 -6 -2 -5 -13z"/>
<path d="M1883 1026 c-55 -26 -78 -52 -88 -101 l-6 -30 14 31 c21 45 64 81
122 104 28 10 41 19 30 19 -11 1 -43 -10 -72 -23z"/>
<path d="M4989 1925 c-3 -2 -30 -9 -60 -14 l-54 -10 53 4 c45 3 107 24 76 25
-6 0 -13 -2 -15 -5z"/>
<path d="M5253 1169 c36 -20 65 -45 74 -63 10 -20 18 -26 21 -17 10 31 -61 93
-123 106 -22 5 -15 -2 28 -26z"/>
<path d="M3280 1371 c-47 -32 -94 -68 -105 -81 -11 -12 23 8 76 43 80 55 134
99 118 96 -2 0 -42 -26 -89 -58z"/>
<path d="M3011 1034 c0 -11 3 -14 6 -6 3 7 2 16 -1 19 -3 4 -6 -2 -5 -13z"/>
<path d="M3886 1905 c17 -7 44 -16 60 -20 25 -4 24 -3 -6 8 -19 8 -46 17 -60
20 -19 5 -17 3 6 -8z"/>
<path d="M3988 1873 c6 -2 18 -2 25 0 6 3 1 5 -13 5 -14 0 -19 -2 -12 -5z"/>
<path d="M3610 1277 c3 -2 32 -28 64 -58 32 -30 54 -45 48 -34 -14 27 -72 80
-97 89 -11 4 -17 5 -15 3z"/>
<path d="M2420 1060 c-23 -5 4 -8 80 -8 63 -1 133 3 155 7 30 7 9 9 -80 9 -66
-1 -136 -4 -155 -8z"/>
<path d="M715 1886 c-9 -41 -26 -87 -38 -103 -17 -23 -18 -25 -3 -13 25 20 52
84 61 143 10 71 -1 56 -20 -27z"/>
<path d="M696 1763 c-6 -14 -5 -15 5 -6 7 7 10 15 7 18 -3 3 -9 -2 -12 -12z"/>
<path d="M3348 583 c7 -3 16 -2 19 1 4 3 -2 6 -13 5 -11 0 -14 -3 -6 -6z"/>
<path d="M207 1385 c-27 -145 -54 -259 -72 -301 -22 -52 -11 -53 19 -2 51 88
80 220 74 338 l-3 65 -18 -100z"/>
<path d="M355 768 c-167 -160 -243 -275 -284 -430 -23 -85 -39 -258 -24 -258
6 0 13 33 16 72 19 219 118 409 332 636 48 50 84 92 82 92 -3 0 -58 -50 -122
-112z"/>
<path d="M688 283 c-25 -27 -53 -61 -61 -78 l-16 -30 -10 25 c-8 20 -10 11 -9
-45 1 -69 16 -141 17 -85 1 31 40 115 79 173 31 45 55 87 49 87 -1 0 -23 -21
-49 -47z"/>
<path d="M4330 278 c-48 -77 -50 -166 -7 -217 l25 -30 12 47 c6 26 23 67 36
92 l25 45 -26 -25 c-32 -30 -46 -54 -55 -95 l-7 -30 -12 30 c-16 38 -8 111 18
170 23 53 19 59 -9 13z"/>
<path d="M1911 243 c-14 -28 -41 -124 -40 -147 0 -12 10 13 23 54 13 41 26 83
31 93 4 9 5 17 1 17 -3 0 -9 -8 -15 -17z"/>
</g>
</svg>
