<svg xmlns="http://www.w3.org/2000/svg" viewBox="0 0 271.3 271.31"><defs><style>.cls-1{fill:none;stroke:#3D5067;stroke-miterlimit:10;stroke-width:6px;}</style></defs><title>Recurso 8</title><g id="Capa_2" data-name="Capa 2"><g id="Capa_1-2" data-name="Capa 1"><path class="cls-1" d="M220.05,238a132.67,132.67,0,0,1-169-.13c9.45-62,38.37-75.36,38.37-75.36a68.58,68.58,0,0,0,25.44-19,48,48,0,0,0,41.32,0,68.58,68.58,0,0,0,25.44,19S210.62,175.9,220.05,238Z"/><path class="cls-1" d="M268.3,135.66A132.37,132.37,0,0,1,220.05,238c-9.43-62.1-38.39-75.49-38.39-75.49a68.58,68.58,0,0,1-25.44-19,48,48,0,1,0-41.32,0,68.58,68.58,0,0,1-25.44,19s-28.92,13.37-38.37,75.36A132.66,132.66,0,1,1,268.3,135.66Z"/><path class="cls-1" d="M183.59,100.13a48,48,0,1,1-48-48A48,48,0,0,1,183.59,100.13Z"/></g></g></svg>